<?xml version="1.0" encoding="UTF-8" standalone="no"?>
<!-- Created with Inkscape (http://www.inkscape.org/) -->

<svg
   xmlns:dc="http://purl.org/dc/elements/1.1/"
   xmlns:cc="http://creativecommons.org/ns#"
   xmlns:rdf="http://www.w3.org/1999/02/22-rdf-syntax-ns#"
   xmlns:svg="http://www.w3.org/2000/svg"
   xmlns="http://www.w3.org/2000/svg"
   xmlns:sodipodi="http://sodipodi.sourceforge.net/DTD/sodipodi-0.dtd"
   xmlns:inkscape="http://www.inkscape.org/namespaces/inkscape"
   id="svg2"
   version="1.1"
   inkscape:version="0.91 r13725"
   width="453.5433"
   height="340.15747"
   xml:space="preserve"
   sodipodi:docname="cpeb_bkground_topleftlogo.svg"><metadata
     id="metadata8"><rdf:RDF><cc:Work
         rdf:about=""><dc:format>image/svg+xml</dc:format><dc:type
           rdf:resource="http://purl.org/dc/dcmitype/StillImage" /><dc:title></dc:title></cc:Work></rdf:RDF></metadata><defs
     id="defs6"><clipPath
       clipPathUnits="userSpaceOnUse"
       id="clipPath32"><path
         d="m 144.754,124.008 0,4.078 5.797,0 0,-4.078 -5.797,0"
         id="path34"
         inkscape:connector-curvature="0" /></clipPath><clipPath
       clipPathUnits="userSpaceOnUse"
       id="clipPath44"><path
         d="m 144.754,127.52 0,2.32 9.289,0 0,-2.32 -9.289,0"
         id="path46"
         inkscape:connector-curvature="0" /></clipPath><clipPath
       clipPathUnits="userSpaceOnUse"
       id="clipPath56"><path
         d="m 143.012,129.273 0,2.321 14.515,0 0,-2.321 -14.515,0"
         id="path58"
         inkscape:connector-curvature="0" /></clipPath><clipPath
       clipPathUnits="userSpaceOnUse"
       id="clipPath68"><path
         d="m 143.012,131.027 0,2.321 19.75,0 0,-2.321 -19.75,0"
         id="path70"
         inkscape:connector-curvature="0" /></clipPath><clipPath
       clipPathUnits="userSpaceOnUse"
       id="clipPath80"><path
         d="m 143.012,132.785 0,2.32 23.238,0 0,-2.32 -23.238,0"
         id="path82"
         inkscape:connector-curvature="0" /></clipPath><clipPath
       clipPathUnits="userSpaceOnUse"
       id="clipPath92"><path
         d="m 143.012,134.539 0,2.32 26.73,0 0,-2.32 -26.73,0"
         id="path94"
         inkscape:connector-curvature="0" /></clipPath><clipPath
       clipPathUnits="userSpaceOnUse"
       id="clipPath104"><path
         d="m 143.012,136.293 0,2.324 30.215,0 0,-2.324 -30.215,0"
         id="path106"
         inkscape:connector-curvature="0" /></clipPath><clipPath
       clipPathUnits="userSpaceOnUse"
       id="clipPath116"><path
         d="m 143.012,138.051 0,2.32 33.703,0 0,-2.32 -33.703,0"
         id="path118"
         inkscape:connector-curvature="0" /></clipPath><clipPath
       clipPathUnits="userSpaceOnUse"
       id="clipPath128"><path
         d="m 141.266,139.805 0,2.324 38.941,0 0,-2.324 -38.941,0"
         id="path130"
         inkscape:connector-curvature="0" /></clipPath><clipPath
       clipPathUnits="userSpaceOnUse"
       id="clipPath140"><path
         d="m 141.266,141.562 0,2.321 42.425,0 0,-2.321 -42.425,0"
         id="path142"
         inkscape:connector-curvature="0" /></clipPath><clipPath
       clipPathUnits="userSpaceOnUse"
       id="clipPath152"><path
         d="m 141.266,143.316 0,2.321 47.66,0 0,-2.321 -47.66,0"
         id="path154"
         inkscape:connector-curvature="0" /></clipPath><clipPath
       clipPathUnits="userSpaceOnUse"
       id="clipPath164"><path
         d="m 141.266,145.07 0,2.321 51.148,0 0,-2.321 -51.148,0"
         id="path166"
         inkscape:connector-curvature="0" /></clipPath><clipPath
       clipPathUnits="userSpaceOnUse"
       id="clipPath176"><path
         d="m 141.266,146.828 0,2.32 54.636,0 0,-2.32 -54.636,0"
         id="path178"
         inkscape:connector-curvature="0" /></clipPath><clipPath
       clipPathUnits="userSpaceOnUse"
       id="clipPath188"><path
         d="m 141.266,148.582 0,2.32 58.125,0 0,-2.32 -58.125,0"
         id="path190"
         inkscape:connector-curvature="0" /></clipPath><clipPath
       clipPathUnits="userSpaceOnUse"
       id="clipPath200"><path
         d="m 141.266,150.336 0,2.324 61.613,0 0,-2.324 -61.613,0"
         id="path202"
         inkscape:connector-curvature="0" /></clipPath><clipPath
       clipPathUnits="userSpaceOnUse"
       id="clipPath212"><path
         d="m 141.266,152.094 0,2.32 58.125,0 0,-2.32 -58.125,0"
         id="path214"
         inkscape:connector-curvature="0" /></clipPath><clipPath
       clipPathUnits="userSpaceOnUse"
       id="clipPath224"><path
         d="m 141.266,153.848 0,2.324 56.382,0 0,-2.324 -56.382,0"
         id="path226"
         inkscape:connector-curvature="0" /></clipPath><clipPath
       clipPathUnits="userSpaceOnUse"
       id="clipPath236"><path
         d="m 139.523,155.605 0,2.321 56.379,0 0,-2.321 -56.379,0"
         id="path238"
         inkscape:connector-curvature="0" /></clipPath><clipPath
       clipPathUnits="userSpaceOnUse"
       id="clipPath248"><path
         d="m 139.523,157.359 0,2.321 52.891,0 0,-2.321 -52.891,0"
         id="path250"
         inkscape:connector-curvature="0" /></clipPath><clipPath
       clipPathUnits="userSpaceOnUse"
       id="clipPath260"><path
         d="m 139.523,159.113 0,2.321 51.149,0 0,-2.321 -51.149,0"
         id="path262"
         inkscape:connector-curvature="0" /></clipPath><clipPath
       clipPathUnits="userSpaceOnUse"
       id="clipPath272"><path
         d="m 139.523,160.871 0,2.32 49.403,0 0,-2.32 -49.403,0"
         id="path274"
         inkscape:connector-curvature="0" /></clipPath><clipPath
       clipPathUnits="userSpaceOnUse"
       id="clipPath284"><path
         d="m 139.523,162.625 0,2.32 45.915,0 0,-2.32 -45.915,0"
         id="path286"
         inkscape:connector-curvature="0" /></clipPath><clipPath
       clipPathUnits="userSpaceOnUse"
       id="clipPath296"><path
         d="m 139.523,164.379 0,2.324 44.172,0 0,-2.324 -44.172,0"
         id="path298"
         inkscape:connector-curvature="0" /></clipPath><clipPath
       clipPathUnits="userSpaceOnUse"
       id="clipPath308"><path
         d="m 139.523,166.133 0,2.324 42.426,0 0,-2.324 -42.426,0"
         id="path310"
         inkscape:connector-curvature="0" /></clipPath><clipPath
       clipPathUnits="userSpaceOnUse"
       id="clipPath320"><path
         d="m 139.523,167.891 0,2.32 40.684,0 0,-2.32 -40.684,0"
         id="path322"
         inkscape:connector-curvature="0" /></clipPath><clipPath
       clipPathUnits="userSpaceOnUse"
       id="clipPath332"><path
         d="m 139.523,169.648 0,2.321 37.192,0 0,-2.321 -37.192,0"
         id="path334"
         inkscape:connector-curvature="0" /></clipPath><clipPath
       clipPathUnits="userSpaceOnUse"
       id="clipPath344"><path
         d="m 139.523,171.402 0,2.321 35.45,0 0,-2.321 -35.45,0"
         id="path346"
         inkscape:connector-curvature="0" /></clipPath><clipPath
       clipPathUnits="userSpaceOnUse"
       id="clipPath356"><path
         d="m 139.523,173.156 0,2.321 33.707,0 0,-2.321 -33.707,0"
         id="path358"
         inkscape:connector-curvature="0" /></clipPath><clipPath
       clipPathUnits="userSpaceOnUse"
       id="clipPath368"><path
         d="m 139.523,174.91 0,2.32 31.961,0 0,-2.32 -31.961,0"
         id="path370"
         inkscape:connector-curvature="0" /></clipPath><clipPath
       clipPathUnits="userSpaceOnUse"
       id="clipPath380"><path
         d="m 139.523,176.668 0,2.32 30.215,0 0,-2.32 -30.215,0"
         id="path382"
         inkscape:connector-curvature="0" /></clipPath><clipPath
       clipPathUnits="userSpaceOnUse"
       id="clipPath392"><path
         d="m 139.523,178.422 0,2.324 28.473,0 0,-2.324 -28.473,0"
         id="path394"
         inkscape:connector-curvature="0" /></clipPath><clipPath
       clipPathUnits="userSpaceOnUse"
       id="clipPath404"><path
         d="m 139.523,180.176 0,2.324 26.731,0 0,-2.324 -26.731,0"
         id="path406"
         inkscape:connector-curvature="0" /></clipPath><clipPath
       clipPathUnits="userSpaceOnUse"
       id="clipPath416"><path
         d="m 139.523,181.934 0,2.32 24.985,0 0,-2.32 -24.985,0"
         id="path418"
         inkscape:connector-curvature="0" /></clipPath><clipPath
       clipPathUnits="userSpaceOnUse"
       id="clipPath428"><path
         d="m 139.523,183.691 0,2.321 21.497,0 0,-2.321 -21.497,0"
         id="path430"
         inkscape:connector-curvature="0" /></clipPath><clipPath
       clipPathUnits="userSpaceOnUse"
       id="clipPath440"><path
         d="m 139.523,185.445 0,2.321 19.75,0 0,-2.321 -19.75,0"
         id="path442"
         inkscape:connector-curvature="0" /></clipPath><clipPath
       clipPathUnits="userSpaceOnUse"
       id="clipPath452"><path
         d="m 139.523,187.199 0,2.321 18.008,0 0,-2.321 -18.008,0"
         id="path454"
         inkscape:connector-curvature="0" /></clipPath><clipPath
       clipPathUnits="userSpaceOnUse"
       id="clipPath464"><path
         d="m 139.523,188.953 0,2.32 16.266,0 0,-2.32 -16.266,0"
         id="path466"
         inkscape:connector-curvature="0" /></clipPath><clipPath
       clipPathUnits="userSpaceOnUse"
       id="clipPath476"><path
         d="m 139.523,190.711 0,2.32 14.52,0 0,-2.32 -14.52,0"
         id="path478"
         inkscape:connector-curvature="0" /></clipPath><clipPath
       clipPathUnits="userSpaceOnUse"
       id="clipPath488"><path
         d="m 139.523,192.465 0,2.324 12.778,0 0,-2.324 -12.778,0"
         id="path490"
         inkscape:connector-curvature="0" /></clipPath><clipPath
       clipPathUnits="userSpaceOnUse"
       id="clipPath500"><path
         d="m 139.523,194.219 0,4.078 11.032,0 0,-4.078 -11.032,0"
         id="path502"
         inkscape:connector-curvature="0" /></clipPath><clipPath
       clipPathUnits="userSpaceOnUse"
       id="clipPath512"><path
         d="m 139.523,197.734 0,2.321 9.289,0 0,-2.321 -9.289,0"
         id="path514"
         inkscape:connector-curvature="0" /></clipPath><clipPath
       clipPathUnits="userSpaceOnUse"
       id="clipPath524"><path
         d="m 139.523,199.488 0,2.321 7.543,0 0,-2.321 -7.543,0"
         id="path526"
         inkscape:connector-curvature="0" /></clipPath><clipPath
       clipPathUnits="userSpaceOnUse"
       id="clipPath536"><path
         d="m 139.523,201.242 0,2.32 5.801,0 0,-2.32 -5.801,0"
         id="path538"
         inkscape:connector-curvature="0" /></clipPath><clipPath
       clipPathUnits="userSpaceOnUse"
       id="clipPath548"><path
         d="m 139.523,202.996 0,2.32 4.055,0 0,-2.32 -4.055,0"
         id="path550"
         inkscape:connector-curvature="0" /></clipPath><clipPath
       clipPathUnits="userSpaceOnUse"
       id="clipPath560"><path
         d="m 675.918,176.949 0,4.004 7.672,0 0,-4.004 -7.672,0"
         id="path562"
         inkscape:connector-curvature="0" /></clipPath><clipPath
       clipPathUnits="userSpaceOnUse"
       id="clipPath572"><path
         d="m 647.504,180.387 0,2.289 68.051,0 0,-2.289 -68.051,0"
         id="path574"
         inkscape:connector-curvature="0" /></clipPath><clipPath
       clipPathUnits="userSpaceOnUse"
       id="clipPath584"><path
         d="m 631.52,182.105 0,2.29 100.015,0 0,-2.29 -100.015,0"
         id="path586"
         inkscape:connector-curvature="0" /></clipPath><clipPath
       clipPathUnits="userSpaceOnUse"
       id="clipPath596"><path
         d="m 629.742,183.824 0,2.289 107.121,0 0,-2.289 -107.121,0"
         id="path598"
         inkscape:connector-curvature="0" /></clipPath><clipPath
       clipPathUnits="userSpaceOnUse"
       id="clipPath608"><path
         d="m 631.52,185.543 0,2.289 103.566,0 0,-2.289 -103.566,0"
         id="path610"
         inkscape:connector-curvature="0" /></clipPath><clipPath
       clipPathUnits="userSpaceOnUse"
       id="clipPath620"><path
         d="m 633.297,187.266 0,2.285 100.015,0 0,-2.285 -100.015,0"
         id="path622"
         inkscape:connector-curvature="0" /></clipPath><clipPath
       clipPathUnits="userSpaceOnUse"
       id="clipPath632"><path
         d="m 635.07,188.98 0,2.29 96.465,0 0,-2.29 -96.465,0"
         id="path634"
         inkscape:connector-curvature="0" /></clipPath><clipPath
       clipPathUnits="userSpaceOnUse"
       id="clipPath644"><path
         d="m 636.848,190.703 0,2.285 91.136,0 0,-2.285 -91.136,0"
         id="path646"
         inkscape:connector-curvature="0" /></clipPath><clipPath
       clipPathUnits="userSpaceOnUse"
       id="clipPath656"><path
         d="m 638.621,192.422 0,2.285 87.586,0 0,-2.285 -87.586,0"
         id="path658"
         inkscape:connector-curvature="0" /></clipPath><clipPath
       clipPathUnits="userSpaceOnUse"
       id="clipPath668"><path
         d="m 638.621,194.141 0,2.289 84.031,0 0,-2.289 -84.031,0"
         id="path670"
         inkscape:connector-curvature="0" /></clipPath><clipPath
       clipPathUnits="userSpaceOnUse"
       id="clipPath680"><path
         d="m 640.398,195.859 0,2.286 80.481,0 0,-2.286 -80.481,0"
         id="path682"
         inkscape:connector-curvature="0" /></clipPath><clipPath
       clipPathUnits="userSpaceOnUse"
       id="clipPath692"><path
         d="m 642.176,197.578 0,2.289 76.926,0 0,-2.289 -76.926,0"
         id="path694"
         inkscape:connector-curvature="0" /></clipPath><clipPath
       clipPathUnits="userSpaceOnUse"
       id="clipPath704"><path
         d="m 643.953,199.297 0,2.289 71.602,0 0,-2.289 -71.602,0"
         id="path706"
         inkscape:connector-curvature="0" /></clipPath><clipPath
       clipPathUnits="userSpaceOnUse"
       id="clipPath716"><path
         d="m 645.727,201.02 0,2.285 68.05,0 0,-2.285 -68.05,0"
         id="path718"
         inkscape:connector-curvature="0" /></clipPath><clipPath
       clipPathUnits="userSpaceOnUse"
       id="clipPath728"><path
         d="m 647.504,202.734 0,2.289 62.719,0 0,-2.289 -62.719,0"
         id="path730"
         inkscape:connector-curvature="0" /></clipPath><clipPath
       clipPathUnits="userSpaceOnUse"
       id="clipPath740"><path
         d="m 649.277,204.457 0,2.285 59.168,0 0,-2.285 -59.168,0"
         id="path742"
         inkscape:connector-curvature="0" /></clipPath><clipPath
       clipPathUnits="userSpaceOnUse"
       id="clipPath752"><path
         d="m 651.055,206.176 0,2.285 55.617,0 0,-2.285 -55.617,0"
         id="path754"
         inkscape:connector-curvature="0" /></clipPath><clipPath
       clipPathUnits="userSpaceOnUse"
       id="clipPath764"><path
         d="m 652.828,207.895 0,2.289 50.293,0 0,-2.289 -50.293,0"
         id="path766"
         inkscape:connector-curvature="0" /></clipPath><clipPath
       clipPathUnits="userSpaceOnUse"
       id="clipPath776"><path
         d="m 654.605,209.613 0,2.285 46.743,0 0,-2.285 -46.743,0"
         id="path778"
         inkscape:connector-curvature="0" /></clipPath><clipPath
       clipPathUnits="userSpaceOnUse"
       id="clipPath788"><path
         d="m 654.605,211.332 0,2.289 43.188,0 0,-2.289 -43.188,0"
         id="path790"
         inkscape:connector-curvature="0" /></clipPath><clipPath
       clipPathUnits="userSpaceOnUse"
       id="clipPath800"><path
         d="m 656.383,213.051 0,2.289 39.633,0 0,-2.289 -39.633,0"
         id="path802"
         inkscape:connector-curvature="0" /></clipPath><clipPath
       clipPathUnits="userSpaceOnUse"
       id="clipPath812"><path
         d="m 658.16,214.773 0,2.286 36.082,0 0,-2.286 -36.082,0"
         id="path814"
         inkscape:connector-curvature="0" /></clipPath><clipPath
       clipPathUnits="userSpaceOnUse"
       id="clipPath824"><path
         d="m 659.934,216.488 0,2.289 30.754,0 0,-2.289 -30.754,0"
         id="path826"
         inkscape:connector-curvature="0" /></clipPath><clipPath
       clipPathUnits="userSpaceOnUse"
       id="clipPath836"><path
         d="m 659.934,218.211 0,2.285 28.98,0 0,-2.285 -28.98,0"
         id="path838"
         inkscape:connector-curvature="0" /></clipPath><clipPath
       clipPathUnits="userSpaceOnUse"
       id="clipPath848"><path
         d="m 661.711,219.93 0,2.285 23.652,0 0,-2.285 -23.652,0"
         id="path850"
         inkscape:connector-curvature="0" /></clipPath><clipPath
       clipPathUnits="userSpaceOnUse"
       id="clipPath860"><path
         d="m 663.484,221.648 0,2.29 20.102,0 0,-2.29 -20.102,0"
         id="path862"
         inkscape:connector-curvature="0" /></clipPath><clipPath
       clipPathUnits="userSpaceOnUse"
       id="clipPath872"><path
         d="m 665.262,223.367 0,2.285 16.55,0 0,-2.285 -16.55,0"
         id="path874"
         inkscape:connector-curvature="0" /></clipPath><clipPath
       clipPathUnits="userSpaceOnUse"
       id="clipPath884"><path
         d="m 667.035,225.086 0,2.289 11.223,0 0,-2.289 -11.223,0"
         id="path886"
         inkscape:connector-curvature="0" /></clipPath><clipPath
       clipPathUnits="userSpaceOnUse"
       id="clipPath896"><path
         d="m 667.035,226.805 0,2.289 9.445,0 0,-2.289 -9.445,0"
         id="path898"
         inkscape:connector-curvature="0" /></clipPath><clipPath
       clipPathUnits="userSpaceOnUse"
       id="clipPath908"><path
         d="m 668.812,228.523 0,2.289 4.122,0 0,-2.289 -4.122,0"
         id="path910"
         inkscape:connector-curvature="0" /></clipPath><clipPath
       clipPathUnits="userSpaceOnUse"
       id="clipPath920"><path
         d="m 646.875,653 0,4.086 4.082,0 0,-4.086 -4.082,0"
         id="path922"
         inkscape:connector-curvature="0" /></clipPath><clipPath
       clipPathUnits="userSpaceOnUse"
       id="clipPath932"><path
         d="m 645.121,656.52 0,2.328 5.836,0 0,-2.328 -5.836,0"
         id="path934"
         inkscape:connector-curvature="0" /></clipPath><clipPath
       clipPathUnits="userSpaceOnUse"
       id="clipPath944"><path
         d="m 643.363,658.281 0,2.324 7.59,0 0,-2.324 -7.59,0"
         id="path946"
         inkscape:connector-curvature="0" /></clipPath><clipPath
       clipPathUnits="userSpaceOnUse"
       id="clipPath956"><path
         d="m 641.609,660.039 0,2.328 9.344,0 0,-2.328 -9.344,0"
         id="path958"
         inkscape:connector-curvature="0" /></clipPath><clipPath
       clipPathUnits="userSpaceOnUse"
       id="clipPath968"><path
         d="m 639.855,661.801 0,2.328 11.102,0 0,-2.328 -11.102,0"
         id="path970"
         inkscape:connector-curvature="0" /></clipPath><clipPath
       clipPathUnits="userSpaceOnUse"
       id="clipPath980"><path
         d="m 638.102,663.562 0,2.325 12.855,0 0,-2.325 -12.855,0"
         id="path982"
         inkscape:connector-curvature="0" /></clipPath><clipPath
       clipPathUnits="userSpaceOnUse"
       id="clipPath992"><path
         d="m 636.344,665.32 0,2.328 14.609,0 0,-2.328 -14.609,0"
         id="path994"
         inkscape:connector-curvature="0" /></clipPath><clipPath
       clipPathUnits="userSpaceOnUse"
       id="clipPath1004"><path
         d="m 634.59,667.082 0,2.328 16.363,0 0,-2.328 -16.363,0"
         id="path1006"
         inkscape:connector-curvature="0" /></clipPath><clipPath
       clipPathUnits="userSpaceOnUse"
       id="clipPath1016"><path
         d="m 632.832,668.844 0,2.324 18.125,0 0,-2.324 -18.125,0"
         id="path1018"
         inkscape:connector-curvature="0" /></clipPath><clipPath
       clipPathUnits="userSpaceOnUse"
       id="clipPath1028"><path
         d="m 631.078,670.602 0,2.328 19.879,0 0,-2.328 -19.879,0"
         id="path1030"
         inkscape:connector-curvature="0" /></clipPath><clipPath
       clipPathUnits="userSpaceOnUse"
       id="clipPath1040"><path
         d="m 629.32,672.363 0,2.328 21.633,0 0,-2.328 -21.633,0"
         id="path1042"
         inkscape:connector-curvature="0" /></clipPath><clipPath
       clipPathUnits="userSpaceOnUse"
       id="clipPath1052"><path
         d="m 627.566,674.121 0,4.09 23.387,0 0,-4.09 -23.387,0"
         id="path1054"
         inkscape:connector-curvature="0" /></clipPath><clipPath
       clipPathUnits="userSpaceOnUse"
       id="clipPath1064"><path
         d="m 624.059,677.645 0,2.328 26.898,0 0,-2.328 -26.898,0"
         id="path1066"
         inkscape:connector-curvature="0" /></clipPath><clipPath
       clipPathUnits="userSpaceOnUse"
       id="clipPath1076"><path
         d="m 622.301,679.402 0,2.328 28.652,0 0,-2.328 -28.652,0"
         id="path1078"
         inkscape:connector-curvature="0" /></clipPath><clipPath
       clipPathUnits="userSpaceOnUse"
       id="clipPath1088"><path
         d="m 620.547,681.164 0,2.328 30.406,0 0,-2.328 -30.406,0"
         id="path1090"
         inkscape:connector-curvature="0" /></clipPath><clipPath
       clipPathUnits="userSpaceOnUse"
       id="clipPath1100"><path
         d="m 618.789,682.926 0,2.324 32.168,0 0,-2.324 -32.168,0"
         id="path1102"
         inkscape:connector-curvature="0" /></clipPath><clipPath
       clipPathUnits="userSpaceOnUse"
       id="clipPath1112"><path
         d="m 617.035,684.684 0,2.328 33.922,0 0,-2.328 -33.922,0"
         id="path1114"
         inkscape:connector-curvature="0" /></clipPath><clipPath
       clipPathUnits="userSpaceOnUse"
       id="clipPath1124"><path
         d="m 615.277,686.445 0,2.328 35.676,0 0,-2.328 -35.676,0"
         id="path1126"
         inkscape:connector-curvature="0" /></clipPath><clipPath
       clipPathUnits="userSpaceOnUse"
       id="clipPath1136"><path
         d="m 611.77,688.207 0,2.324 39.187,0 0,-2.324 -39.187,0"
         id="path1138"
         inkscape:connector-curvature="0" /></clipPath><clipPath
       clipPathUnits="userSpaceOnUse"
       id="clipPath1148"><path
         d="m 610.016,689.965 0,2.328 40.941,0 0,-2.328 -40.941,0"
         id="path1150"
         inkscape:connector-curvature="0" /></clipPath><clipPath
       clipPathUnits="userSpaceOnUse"
       id="clipPath1160"><path
         d="m 608.258,691.723 0,2.328 42.695,0 0,-2.328 -42.695,0"
         id="path1162"
         inkscape:connector-curvature="0" /></clipPath><clipPath
       clipPathUnits="userSpaceOnUse"
       id="clipPath1172"><path
         d="m 606.504,693.484 0,2.328 44.449,0 0,-2.328 -44.449,0"
         id="path1174"
         inkscape:connector-curvature="0" /></clipPath><clipPath
       clipPathUnits="userSpaceOnUse"
       id="clipPath1184"><path
         d="m 604.75,695.242 0,2.328 46.203,0 0,-2.328 -46.203,0"
         id="path1186"
         inkscape:connector-curvature="0" /></clipPath><clipPath
       clipPathUnits="userSpaceOnUse"
       id="clipPath1196"><path
         d="m 601.234,697.004 0,2.328 49.719,0 0,-2.328 -49.719,0"
         id="path1198"
         inkscape:connector-curvature="0" /></clipPath><clipPath
       clipPathUnits="userSpaceOnUse"
       id="clipPath1208"><path
         d="m 599.48,698.766 0,2.328 51.473,0 0,-2.328 -51.473,0"
         id="path1210"
         inkscape:connector-curvature="0" /></clipPath><clipPath
       clipPathUnits="userSpaceOnUse"
       id="clipPath1220"><path
         d="m 597.727,700.523 0,2.329 53.226,0 0,-2.329 -53.226,0"
         id="path1222"
         inkscape:connector-curvature="0" /></clipPath><clipPath
       clipPathUnits="userSpaceOnUse"
       id="clipPath1232"><path
         d="m 594.215,702.285 0,2.328 56.738,0 0,-2.328 -56.738,0"
         id="path1234"
         inkscape:connector-curvature="0" /></clipPath><clipPath
       clipPathUnits="userSpaceOnUse"
       id="clipPath1244"><path
         d="m 592.461,704.047 0,2.324 56.738,0 0,-2.324 -56.738,0"
         id="path1246"
         inkscape:connector-curvature="0" /></clipPath><clipPath
       clipPathUnits="userSpaceOnUse"
       id="clipPath1256"><path
         d="m 590.707,705.805 0,2.328 58.488,0 0,-2.328 -58.488,0"
         id="path1258"
         inkscape:connector-curvature="0" /></clipPath><clipPath
       clipPathUnits="userSpaceOnUse"
       id="clipPath1268"><path
         d="m 592.461,707.566 0,2.329 56.738,0 0,-2.329 -56.738,0"
         id="path1270"
         inkscape:connector-curvature="0" /></clipPath><clipPath
       clipPathUnits="userSpaceOnUse"
       id="clipPath1280"><path
         d="m 595.973,709.328 0,2.324 53.226,0 0,-2.324 -53.226,0"
         id="path1282"
         inkscape:connector-curvature="0" /></clipPath><clipPath
       clipPathUnits="userSpaceOnUse"
       id="clipPath1292"><path
         d="m 599.48,711.086 0,2.328 49.719,0 0,-2.328 -49.719,0"
         id="path1294"
         inkscape:connector-curvature="0" /></clipPath><clipPath
       clipPathUnits="userSpaceOnUse"
       id="clipPath1304"><path
         d="m 602.992,712.848 0,2.328 46.207,0 0,-2.328 -46.207,0"
         id="path1306"
         inkscape:connector-curvature="0" /></clipPath><clipPath
       clipPathUnits="userSpaceOnUse"
       id="clipPath1316"><path
         d="m 606.504,714.605 0,2.329 42.695,0 0,-2.329 -42.695,0"
         id="path1318"
         inkscape:connector-curvature="0" /></clipPath><clipPath
       clipPathUnits="userSpaceOnUse"
       id="clipPath1328"><path
         d="m 610.016,716.367 0,2.328 39.183,0 0,-2.328 -39.183,0"
         id="path1330"
         inkscape:connector-curvature="0" /></clipPath><clipPath
       clipPathUnits="userSpaceOnUse"
       id="clipPath1340"><path
         d="m 613.523,718.129 0,2.328 35.676,0 0,-2.328 -35.676,0"
         id="path1342"
         inkscape:connector-curvature="0" /></clipPath><clipPath
       clipPathUnits="userSpaceOnUse"
       id="clipPath1352"><path
         d="m 618.789,719.887 0,2.328 28.652,0 0,-2.328 -28.652,0"
         id="path1354"
         inkscape:connector-curvature="0" /></clipPath><clipPath
       clipPathUnits="userSpaceOnUse"
       id="clipPath1364"><path
         d="m 622.301,721.648 0,2.329 25.14,0 0,-2.329 -25.14,0"
         id="path1366"
         inkscape:connector-curvature="0" /></clipPath><clipPath
       clipPathUnits="userSpaceOnUse"
       id="clipPath1376"><path
         d="m 625.812,723.41 0,2.324 21.629,0 0,-2.324 -21.629,0"
         id="path1378"
         inkscape:connector-curvature="0" /></clipPath><clipPath
       clipPathUnits="userSpaceOnUse"
       id="clipPath1388"><path
         d="m 629.32,725.168 0,2.328 18.121,0 0,-2.328 -18.121,0"
         id="path1390"
         inkscape:connector-curvature="0" /></clipPath><clipPath
       clipPathUnits="userSpaceOnUse"
       id="clipPath1400"><path
         d="m 632.832,726.93 0,2.328 14.613,0 0,-2.328 -14.613,0"
         id="path1402"
         inkscape:connector-curvature="0" /></clipPath><clipPath
       clipPathUnits="userSpaceOnUse"
       id="clipPath1412"><path
         d="m 636.344,728.691 0,2.325 11.101,0 0,-2.325 -11.101,0"
         id="path1414"
         inkscape:connector-curvature="0" /></clipPath><clipPath
       clipPathUnits="userSpaceOnUse"
       id="clipPath1424"><path
         d="m 118.059,629.984 0,4.059 5.867,0 0,-4.059 -5.867,0"
         id="path1426"
         inkscape:connector-curvature="0" /></clipPath><clipPath
       clipPathUnits="userSpaceOnUse"
       id="clipPath1436"><path
         d="m 114.527,633.473 0,2.312 11.164,0 0,-2.312 -11.164,0"
         id="path1438"
         inkscape:connector-curvature="0" /></clipPath><clipPath
       clipPathUnits="userSpaceOnUse"
       id="clipPath1448"><path
         d="m 110.996,635.219 0,2.308 16.461,0 0,-2.308 -16.461,0"
         id="path1450"
         inkscape:connector-curvature="0" /></clipPath><clipPath
       clipPathUnits="userSpaceOnUse"
       id="clipPath1460"><path
         d="m 107.465,636.961 0,2.309 21.758,0 0,-2.309 -21.758,0"
         id="path1462"
         inkscape:connector-curvature="0" /></clipPath><clipPath
       clipPathUnits="userSpaceOnUse"
       id="clipPath1472"><path
         d="m 103.93,638.707 0,2.309 25.293,0 0,-2.309 -25.293,0"
         id="path1474"
         inkscape:connector-curvature="0" /></clipPath><clipPath
       clipPathUnits="userSpaceOnUse"
       id="clipPath1484"><path
         d="m 100.398,640.449 0,2.313 30.59,0 0,-2.313 -30.59,0"
         id="path1486"
         inkscape:connector-curvature="0" /></clipPath><clipPath
       clipPathUnits="userSpaceOnUse"
       id="clipPath1496"><path
         d="m 96.8672,642.195 0,2.309 35.8868,0 0,-2.309 -35.8868,0"
         id="path1498"
         inkscape:connector-curvature="0" /></clipPath><clipPath
       clipPathUnits="userSpaceOnUse"
       id="clipPath1508"><path
         d="m 93.3359,643.941 0,2.309 41.1841,0 0,-2.309 -41.1841,0"
         id="path1510"
         inkscape:connector-curvature="0" /></clipPath><clipPath
       clipPathUnits="userSpaceOnUse"
       id="clipPath1520"><path
         d="m 89.8047,645.684 0,2.308 46.4803,0 0,-2.308 -46.4803,0"
         id="path1522"
         inkscape:connector-curvature="0" /></clipPath><clipPath
       clipPathUnits="userSpaceOnUse"
       id="clipPath1532"><path
         d="m 86.2734,647.43 0,2.308 51.7776,0 0,-2.308 -51.7776,0"
         id="path1534"
         inkscape:connector-curvature="0" /></clipPath><clipPath
       clipPathUnits="userSpaceOnUse"
       id="clipPath1544"><path
         d="m 82.7383,649.172 0,2.312 55.3127,0 0,-2.312 -55.3127,0"
         id="path1546"
         inkscape:connector-curvature="0" /></clipPath><clipPath
       clipPathUnits="userSpaceOnUse"
       id="clipPath1556"><path
         d="m 79.207,650.914 0,2.313 60.609,0 0,-2.313 -60.609,0"
         id="path1558"
         inkscape:connector-curvature="0" /></clipPath><clipPath
       clipPathUnits="userSpaceOnUse"
       id="clipPath1568"><path
         d="m 75.6758,652.66 0,2.313 65.9102,0 0,-2.313 -65.9102,0"
         id="path1570"
         inkscape:connector-curvature="0" /></clipPath><clipPath
       clipPathUnits="userSpaceOnUse"
       id="clipPath1580"><path
         d="m 72.1445,654.406 0,2.309 71.2075,0 0,-2.309 -71.2075,0"
         id="path1582"
         inkscape:connector-curvature="0" /></clipPath><clipPath
       clipPathUnits="userSpaceOnUse"
       id="clipPath1592"><path
         d="m 68.6133,656.148 0,2.309 76.5037,0 0,-2.309 -76.5037,0"
         id="path1594"
         inkscape:connector-curvature="0" /></clipPath><clipPath
       clipPathUnits="userSpaceOnUse"
       id="clipPath1604"><path
         d="m 65.0781,657.895 0,2.308 81.8049,0 0,-2.308 -81.8049,0"
         id="path1606"
         inkscape:connector-curvature="0" /></clipPath><clipPath
       clipPathUnits="userSpaceOnUse"
       id="clipPath1616"><path
         d="m 61.5469,659.637 0,2.312 87.1011,0 0,-2.312 -87.1011,0"
         id="path1618"
         inkscape:connector-curvature="0" /></clipPath><clipPath
       clipPathUnits="userSpaceOnUse"
       id="clipPath1628"><path
         d="m 58.0156,661.383 0,2.308 92.3984,0 0,-2.308 -92.3984,0"
         id="path1630"
         inkscape:connector-curvature="0" /></clipPath><clipPath
       clipPathUnits="userSpaceOnUse"
       id="clipPath1640"><path
         d="m 54.4844,663.129 0,2.309 97.6956,0 0,-2.309 -97.6956,0"
         id="path1642"
         inkscape:connector-curvature="0" /></clipPath><clipPath
       clipPathUnits="userSpaceOnUse"
       id="clipPath1652"><path
         d="m 50.9531,664.871 0,2.309 102.9919,0 0,-2.309 -102.9919,0"
         id="path1654"
         inkscape:connector-curvature="0" /></clipPath><clipPath
       clipPathUnits="userSpaceOnUse"
       id="clipPath1664"><path
         d="m 47.4219,666.617 0,2.309 108.2931,0 0,-2.309 -108.2931,0"
         id="path1666"
         inkscape:connector-curvature="0" /></clipPath><clipPath
       clipPathUnits="userSpaceOnUse"
       id="clipPath1676"><path
         d="m 47.4219,668.359 0,2.313 110.0581,0 0,-2.313 -110.0581,0"
         id="path1678"
         inkscape:connector-curvature="0" /></clipPath><clipPath
       clipPathUnits="userSpaceOnUse"
       id="clipPath1688"><path
         d="m 52.7188,670.102 0,2.312 106.5272,0 0,-2.312 -106.5272,0"
         id="path1690"
         inkscape:connector-curvature="0" /></clipPath><clipPath
       clipPathUnits="userSpaceOnUse"
       id="clipPath1700"><path
         d="m 58.0156,671.852 0,2.308 102.9964,0 0,-2.308 -102.9964,0"
         id="path1702"
         inkscape:connector-curvature="0" /></clipPath><clipPath
       clipPathUnits="userSpaceOnUse"
       id="clipPath1712"><path
         d="m 66.8477,673.594 0,2.308 95.9293,0 0,-2.308 -95.9293,0"
         id="path1714"
         inkscape:connector-curvature="0" /></clipPath><clipPath
       clipPathUnits="userSpaceOnUse"
       id="clipPath1724"><path
         d="m 75.6758,675.336 0,2.312 88.8672,0 0,-2.312 -88.8672,0"
         id="path1726"
         inkscape:connector-curvature="0" /></clipPath><clipPath
       clipPathUnits="userSpaceOnUse"
       id="clipPath1736"><path
         d="m 84.5039,677.082 0,2.313 81.8051,0 0,-2.313 -81.8051,0"
         id="path1738"
         inkscape:connector-curvature="0" /></clipPath><clipPath
       clipPathUnits="userSpaceOnUse"
       id="clipPath1748"><path
         d="m 96.8672,678.824 0,2.313 72.9728,0 0,-2.313 -72.9728,0"
         id="path1750"
         inkscape:connector-curvature="0" /></clipPath></defs><sodipodi:namedview
     pagecolor="#ffffff"
     bordercolor="#666666"
     borderopacity="1"
     objecttolerance="10"
     gridtolerance="10"
     guidetolerance="10"
     inkscape:pageopacity="0"
     inkscape:pageshadow="2"
     inkscape:window-width="1278"
     inkscape:window-height="1579"
     id="namedview4"
     showgrid="false"
     inkscape:zoom="5.6568542"
     inkscape:cx="76.708031"
     inkscape:cy="236.62795"
     inkscape:window-x="0"
     inkscape:window-y="19"
     inkscape:window-maximized="0"
     inkscape:current-layer="g10"
     units="mm" /><g
     id="g10"
     inkscape:groupmode="layer"
     inkscape:label="ink_ext_XXXXXX"
     transform="matrix(1.25,0,0,-1.25,0,340.15745)"><path
       inkscape:connector-curvature="0"
       id="path20"
       style="fill:#becf5a;fill-opacity:1;fill-rule:evenodd;stroke:none;opacity:0.76446281"
       d="m 25.982745,259.2342 1.436702,-0.82958 9.52e-4,-0.004 c 1.197813,-0.71749 1.981762,-2.02656 1.962124,-3.52278 l 1.1e-4,-5.5e-4 -0.0018,-7.62119 c 0.01047,-1.46269 -0.710037,-2.39498 -1.267969,-2.91458 l -0.26615,-0.0354 c -0.887857,-0.12874 -1.803113,-0.10035 -2.716187,0.0254 0.837781,0.79594 1.528401,1.74529 2.026092,2.80328 0.02903,0.0619 0.05731,0.12438 0.08504,0.18718 -0.752987,-0.38398 -1.447611,-0.71208 -1.730168,-0.80886 -0.988505,-0.33912 -1.417809,0.28828 -1.596043,0.82171 -0.136721,0.4077 -0.08783,1.01137 0.06775,1.71925 0.155364,0.708 0.417979,1.52009 0.708297,2.34526 0.40602,1.15466 0.839521,2.39996 1.121111,3.67254 0.271453,1.22792 0.401269,2.4813 0.228835,3.70242 -0.0048,0.0326 -0.0385,0.30394 -0.05869,0.46005" /><path
       inkscape:connector-curvature="0"
       id="path22"
       style="fill:#a6bd28;fill-opacity:1;fill-rule:evenodd;stroke:none;opacity:0.76446281"
       d="m 20.813426,262.21872 4.797107,-2.76961 0.04228,-0.33219 c 0.08568,-0.60753 0.09678,-1.22295 0.05276,-1.83957 -0.396822,0.44971 -0.836041,0.86098 -1.311858,1.22762 -0.525422,0.40447 -1.095203,0.75447 -1.700255,1.04126 -0.06292,0.03 -0.126473,0.0596 -0.190221,0.0879 0.384089,-0.75351 0.712522,-1.4493 0.809608,-1.73188 0.339012,-0.98839 -0.288495,-1.41792 -0.821596,-1.59646 -0.407815,-0.13627 -1.011486,-0.0872 -1.719368,0.0682 -0.707993,0.15559 -1.520419,0.41787 -2.345467,0.70811 -1.168674,0.41118 -2.430594,0.83822 -3.71914,1.10707 -1.083022,0.22594 -2.18502,0.33999 -3.266855,0.23889 -0.120839,-0.0112 -0.449604,-0.0541 -0.740475,-0.0945 -0.1149,-0.0158 -0.398338,-0.0859 -0.63829,-0.12507 -0.091062,-0.0149 -0.3326323,-0.085 -0.5575863,-0.15255 0.3528058,0.28226 0.6727083,0.46997 1.0611173,0.69397 l 5.991992,3.456 c 1.297412,0.81405 2.953447,0.81933 4.256245,0.0128" /><path
       inkscape:connector-curvature="0"
       id="path24"
       style="fill:#768d28;fill-opacity:1;fill-rule:evenodd;stroke:none;opacity:0.76446281"
       d="m 11.472021,242.92522 -1.236874,0.71415 c -1.4580525,0.78255 -2.2793274,2.08576 -2.2316392,3.83471 l 0,3.62558 -0.00507,3.83957 c 0,1.34735 0.5828321,2.22808 1.1188416,2.76949 0.1787754,0.0526 0.3464421,0.0991 0.4186197,0.11101 0.2399524,0.0394 0.5233869,0.10941 0.6381829,0.12515 0.290986,0.0405 0.619638,0.0833 0.740781,0.0946 0.512165,0.0479 1.029191,0.0474 1.546327,0.01 -0.92636,-0.8325 -1.685396,-1.84788 -2.220106,-2.98893 -0.02989,-0.0633 -0.05847,-0.127 -0.08653,-0.19086 0.772821,0.40232 1.477251,0.74531 1.747737,0.83819 0.988727,0.33924 1.418141,-0.28838 1.596597,-0.8217 0.136251,-0.40781 0.08761,-1.0116 -0.06797,-1.71937 -0.155696,-0.70799 -0.417979,-1.5202 -0.708214,-2.34525 -0.405329,-1.15229 -0.832257,-2.40932 -1.107936,-3.69411 -0.269741,-1.25629 -0.394667,-2.53903 -0.213616,-3.77557 0.0035,-0.0241 0.05447,-0.32821 0.07087,-0.4264" /><path
       inkscape:connector-curvature="0"
       id="path26"
       style="fill:#dee5a2;fill-opacity:1;fill-rule:evenodd;stroke:none;opacity:0.76446281"
       d="m 27.696285,243.99499 c -0.118021,-0.0884 -0.198617,-0.14285 -0.217399,-0.16617 l -3.441112,-1.98683 -3.261249,-1.88034 c -0.60925,-0.3705 -1.325116,-0.58391 -2.090393,-0.58391 -0.809858,0 -1.563701,0.23898 -2.195296,0.65026 l -4.692342,2.70885 c -0.02157,0.1286 -0.05187,0.31073 -0.05469,0.32929 -0.09032,0.61767 -0.104322,1.24701 -0.06226,1.87904 0.843057,-0.96033 1.880119,-1.74635 3.049456,-2.29691 0.06173,-0.0292 0.124181,-0.0574 0.186437,-0.0849 -0.39185,0.75449 -0.729343,1.45416 -0.827727,1.74128 -0.339012,0.98861 0.288495,1.41803 0.821706,1.59646 0.407705,0.13627 1.011376,0.0874 1.719452,-0.0681 0.707772,-0.15548 1.520308,-0.41776 2.345273,-0.70799 1.146992,-0.40354 2.406619,-0.82839 3.694336,-1.10385 1.2675,-0.27104 2.561873,-0.3976 3.802636,-0.21796 0.01359,0.002 0.390911,0.0522 0.629551,0.0838 0.03756,0.005 0.305565,0.0549 0.593617,0.10791" /><path
       sodipodi:nodetypes="cccc"
       inkscape:connector-curvature="0"
       id="path6673"
       d="m 23.961276,258.92968 c 0.749615,-0.55503 1.201703,-0.91033 1.648592,-1.38965 0.03714,0.45463 0.021,1.13262 -0.09223,1.76838 z"
       style="fill:#8aa91e;fill-opacity:1;fill-rule:nonzero;stroke:#8aa91e;stroke-width:0.22096302000000001px;stroke-linecap:butt;stroke-linejoin:miter;stroke-opacity:1;opacity:0.76446281" /><path
       sodipodi:nodetypes="cccc"
       inkscape:connector-curvature="0"
       id="path6673-2"
       d="m 26.277707,245.44645 c -0.188891,-0.2657 -0.612127,-0.71958 -0.942766,-1.05469 1.112341,-0.0993 1.590638,-0.10031 2.500875,0.0216 z"
       style="fill:#acb760;fill-opacity:1;fill-rule:nonzero;stroke:#acb760;stroke-width:0.22096302000000001px;stroke-linecap:butt;stroke-linejoin:miter;stroke-opacity:1;opacity:0.76446281" /><path
       style="fill:#c3c896;fill-opacity:1;stroke:#c3c896;stroke-width:0.22096302000000001px;stroke-linecap:butt;stroke-linejoin:miter;stroke-opacity:1;opacity:0.76446281"
       d="m 11.7816,244.67618 c -0.02366,-0.77101 0.0149,-1.31275 0.106784,-1.7821 l 1.289771,0.54155 c -0.514766,0.36685 -0.934489,0.75108 -1.396555,1.24055 z"
       id="path6698"
       inkscape:connector-curvature="0"
       sodipodi:nodetypes="cccc" /><path
       style="fill:#6c733f;fill-opacity:1;stroke:#6c733f;stroke-width:0.22096302000000001px;stroke-linecap:butt;stroke-linejoin:miter;stroke-opacity:1;opacity:0.76446281"
       d="m 11.141799,256.77554 c 0.320258,0.43825 0.6797,0.8337 1.053691,1.18161 -1.106815,0.0628 -2.2349688,-0.15087 -2.7710368,-0.28486 z"
       id="path6738"
       inkscape:connector-curvature="0"
       sodipodi:nodetypes="cccc" /></g></svg>