<?xml version="1.0" encoding="UTF-8" standalone="no"?>
<!-- Created with Inkscape (http://www.inkscape.org/) -->

<svg
   xmlns:dc="http://purl.org/dc/elements/1.1/"
   xmlns:cc="http://creativecommons.org/ns#"
   xmlns:rdf="http://www.w3.org/1999/02/22-rdf-syntax-ns#"
   xmlns:svg="http://www.w3.org/2000/svg"
   xmlns="http://www.w3.org/2000/svg"
   xmlns:sodipodi="http://sodipodi.sourceforge.net/DTD/sodipodi-0.dtd"
   xmlns:inkscape="http://www.inkscape.org/namespaces/inkscape"
   width="453.5433"
   height="340.15747"
   id="svg6785"
   version="1.1"
   inkscape:version="0.48.5 r10040"
   sodipodi:docname="latex_bkground_centered.pdf">
  <defs
     id="defs6787" />
  <sodipodi:namedview
     id="base"
     pagecolor="#ffffff"
     bordercolor="#666666"
     borderopacity="1.0"
     inkscape:pageopacity="0.0"
     inkscape:pageshadow="2"
     inkscape:zoom="1.4"
     inkscape:cx="111.38658"
     inkscape:cy="248.2394"
     inkscape:document-units="mm"
     inkscape:current-layer="layer1"
     showgrid="false"
     fit-margin-top="10"
     fit-margin-left="10"
     fit-margin-right="10"
     fit-margin-bottom="10"
     units="mm"
     inkscape:window-width="1276"
     inkscape:window-height="1577"
     inkscape:window-x="0"
     inkscape:window-y="19"
     inkscape:window-maximized="0" />
  <metadata
     id="metadata6790">
    <rdf:RDF>
      <cc:Work
         rdf:about="">
        <dc:format>image/svg+xml</dc:format>
        <dc:type
           rdf:resource="http://purl.org/dc/dcmitype/StillImage" />
        <dc:title></dc:title>
      </cc:Work>
    </rdf:RDF>
  </metadata>
  <g
     inkscape:label="Layer 1"
     inkscape:groupmode="layer"
     id="layer1"
     transform="translate(-1.8919181,156.45939)">
    <g
       id="g7322"
       transform="matrix(0.87078961,0,0,0.87078961,95.163145,-3.1995455)">
      <path
         d="m 232.41117,-67.12934 15.58472,8.998918 0.0102,0.04674 c 12.99334,7.78306 21.49729,21.983278 21.28425,38.213656 l 10e-4,0.0049 -0.0183,82.671289 c 0.11366,15.866669 -7.70217,25.979839 -13.75437,31.616183 l -2.88709,0.383779 c -9.63111,1.396527 -19.55939,1.088517 -29.46403,-0.27592 9.08788,-8.633993 16.57943,-18.93201 21.97817,-30.408744 0.31491,-0.671736 0.6217,-1.349154 0.92253,-2.030469 -8.16809,4.165244 -15.7031,7.724334 -18.76815,8.774185 -10.72286,3.678661 -15.37978,-3.127064 -17.31317,-8.913525 -1.48309,-4.422573 -0.95277,-10.97095 0.73494,-18.649766 1.68534,-7.679993 4.53407,-16.489234 7.68329,-25.440216 4.40433,-12.5253517 9.10678,-26.0337485 12.16134,-39.838163 2.94462,-13.319952 4.35279,-26.916124 2.48231,-40.162373 -0.0516,-0.354431 -0.41766,-3.296951 -0.63669,-4.990369"
         style="opacity:0.17942152;fill:#becf5a;fill-opacity:1;fill-rule:evenodd;stroke:none"
         id="path20"
         inkscape:connector-curvature="0" />
      <path
         d="m 176.33662,-99.50412 52.03695,30.043494 0.4587,3.603446 c 0.92941,6.590311 1.04985,13.266022 0.57226,19.954892 -4.30455,-4.878315 -9.06901,-9.339568 -14.23046,-13.316644 -5.69955,-4.387547 -11.8803,-8.184256 -18.44364,-11.295137 -0.68253,-0.32538 -1.37192,-0.645968 -2.06343,-0.953684 4.16643,8.173783 7.72913,15.721348 8.78229,18.786711 3.67746,10.721675 -3.12948,15.380984 -8.91233,17.31769 -4.42381,1.478294 -10.97217,0.945868 -18.65096,-0.739449 -7.68002,-1.687737 -16.49287,-4.532871 -25.44263,-7.681215 -12.67727,-4.460343 -26.36603,-9.092687 -40.34362,-12.00913 -11.74818,-2.450841 -23.702181,-3.687936 -35.437461,-2.591348 -1.310799,0.122006 -4.877117,0.586643 -8.03234,1.025279 -1.246395,0.171146 -4.321009,0.931799 -6.923913,1.356651 -0.98779,0.161546 -3.608239,0.922213 -6.048439,1.654756 3.827077,-3.061744 7.297231,-5.09792 11.510523,-7.527789 l 64.99858,-37.489215 c 14.07375,-8.830508 32.03772,-8.887748 46.16992,-0.139259"
         style="opacity:0.17942152;fill:#a6bd28;fill-opacity:1;fill-rule:evenodd;stroke:none"
         id="path22"
         inkscape:connector-curvature="0" />
      <path
         d="M 75.005048,109.78345 61.587972,102.03663 C 45.77166,93.54796 36.862817,79.41126 37.380119,60.439407 l 0,-39.328826 -0.05513,-41.649945 c 0,-14.615457 6.322311,-24.169262 12.136716,-30.042294 1.939269,-0.569868 3.758046,-1.075304 4.540998,-1.204139 2.602904,-0.427249 5.677494,-1.186782 6.922738,-1.357562 3.156493,-0.438923 6.721564,-0.903637 8.035671,-1.026477 5.555755,-0.519531 11.164217,-0.513827 16.773902,-0.105464 -10.048765,9.030677 -18.282445,20.045086 -24.082758,32.422742 -0.324182,0.687002 -0.634343,1.377624 -0.93863,2.070332 8.383223,-4.364177 16.024579,-8.084784 18.958688,-9.092399 10.725294,-3.679858 15.383381,3.128282 17.3192,8.913518 1.477983,4.423812 0.950375,10.9733746 -0.737362,18.6509708 C 94.565238,6.3698814 91.720103,15.180332 88.571759,24.13009 84.174912,36.629689 79.54379,50.26541 76.553332,64.20226 c -2.926031,13.627647 -4.281174,27.542316 -2.317215,40.95575 0.03858,0.26094 0.590838,3.5603 0.76881,4.62544"
         style="opacity:0.17942152;fill:#768d28;fill-opacity:1;fill-rule:evenodd;stroke:none"
         id="path24"
         inkscape:connector-curvature="0" />
      <path
         d="m 250.99892,98.179086 c -1.28025,0.958473 -2.15453,1.549608 -2.35825,1.80247 l -37.32771,21.552294 -35.37664,20.39714 c -6.60888,4.01905 -14.37427,6.33404 -22.67569,6.33404 -8.78497,0 -16.96235,-2.59236 -23.81361,-7.0538 L 78.546485,111.82681 c -0.233939,-1.39501 -0.562676,-3.37065 -0.593236,-3.572 -0.979738,-6.70028 -1.13163,-13.526975 -0.675329,-20.383057 9.145128,10.417303 20.394723,18.943717 33.07918,24.915897 0.66965,0.31611 1.34707,0.62262 2.0224,0.92103 -4.25061,-8.18427 -7.91161,-15.774074 -8.97883,-18.888554 -3.677468,-10.724095 3.12947,-15.382196 8.91351,-17.317694 4.42262,-1.478304 10.97098,-0.94798 18.65189,0.738249 7.67759,1.686513 16.49164,4.531649 25.44051,7.679985 12.44209,4.377371 26.10597,8.986027 40.07456,11.974097 13.74929,2.940107 27.79011,4.312927 41.24937,2.364237 0.14736,-0.0215 4.24043,-0.565359 6.82911,-0.909315 0.40746,-0.05521 3.31463,-0.595946 6.4393,-1.170599"
         style="opacity:0.17942152;fill:#dee5a2;fill-opacity:1;fill-rule:evenodd;stroke:none"
         id="path26"
         inkscape:connector-curvature="0" />
      <path
         style="opacity:0.17942152;fill:#8aa91e;fill-opacity:1;fill-rule:nonzero;stroke:#8aa91e;stroke-width:2.3969121px;stroke-linecap:butt;stroke-linejoin:miter;stroke-opacity:1"
         d="m 210.48313,-63.826109 c 8.13152,6.020827 13.03556,9.874942 17.88324,15.074349 0.40288,-4.931648 0.22769,-12.286164 -1.00049,-19.182607 z"
         id="path6673"
         inkscape:connector-curvature="0"
         sodipodi:nodetypes="cccc" />
      <path
         style="opacity:0.17942152;fill:#acb760;fill-opacity:1;fill-rule:nonzero;stroke:#acb760;stroke-width:2.3969121px;stroke-linecap:butt;stroke-linejoin:miter;stroke-opacity:1"
         d="m 235.61079,82.434301 c -2.049,2.882199 -6.6401,7.805604 -10.22671,11.440768 12.06617,1.077049 17.25455,1.088051 27.12842,-0.233702 z"
         id="path6673-2"
         inkscape:connector-curvature="0"
         sodipodi:nodetypes="cccc" />
      <path
         sodipodi:nodetypes="cccc"
         inkscape:connector-curvature="0"
         id="path6698"
         d="m 78.36324,90.789797 c -0.256613,8.363675 0.161545,14.240173 1.158332,19.331523 l 13.990897,-5.8746 C 87.928502,100.26732 83.375519,96.099376 78.36324,90.789797 z"
         style="opacity:0.17942152;fill:#c3c896;fill-opacity:1;stroke:#c3c896;stroke-width:2.3969121px;stroke-linecap:butt;stroke-linejoin:miter;stroke-opacity:1" />
      <path
         sodipodi:nodetypes="cccc"
         inkscape:connector-curvature="0"
         id="path6738"
         d="m 71.422957,-40.458829 c 3.474012,-4.754011 7.373094,-9.043669 11.429988,-12.817582 -12.006253,-0.680508 -24.244,1.636539 -30.059027,3.090001 z"
         style="opacity:0.17942152;fill:#6c733f;fill-opacity:1;stroke:#6c733f;stroke-width:2.3969121px;stroke-linecap:butt;stroke-linejoin:miter;stroke-opacity:1" />
    </g>
  </g>
</svg>
