<?xml version="1.0" encoding="UTF-8" standalone="no"?>
<!-- Created with Inkscape (http://www.inkscape.org/) -->

<svg
   xmlns:dc="http://purl.org/dc/elements/1.1/"
   xmlns:cc="http://creativecommons.org/ns#"
   xmlns:rdf="http://www.w3.org/1999/02/22-rdf-syntax-ns#"
   xmlns:svg="http://www.w3.org/2000/svg"
   xmlns="http://www.w3.org/2000/svg"
   xmlns:sodipodi="http://sodipodi.sourceforge.net/DTD/sodipodi-0.dtd"
   xmlns:inkscape="http://www.inkscape.org/namespaces/inkscape"
   id="svg2"
   version="1.1"
   inkscape:version="0.91 r13725"
   xml:space="preserve"
   width="511.83618"
   height="312.27249"
   viewBox="0 0 511.83618 312.27249"
   sodipodi:docname="chlamy_both.svg"
   inkscape:export-filename="/home/kevin/uw/phd/presentations/2017-03-17_hdr-conf/imgs/chlamy_both.png"
   inkscape:export-xdpi="86.900002"
   inkscape:export-ydpi="86.900002"><metadata
     id="metadata8"><rdf:RDF><cc:Work
         rdf:about=""><dc:format>image/svg+xml</dc:format><dc:type
           rdf:resource="http://purl.org/dc/dcmitype/StillImage" /><dc:title></dc:title></cc:Work></rdf:RDF></metadata><defs
     id="defs6" /><sodipodi:namedview
     pagecolor="#ffffff"
     bordercolor="#666666"
     borderopacity="1"
     objecttolerance="10"
     gridtolerance="10"
     guidetolerance="10"
     inkscape:pageopacity="0"
     inkscape:pageshadow="2"
     inkscape:window-width="1918"
     inkscape:window-height="1054"
     id="namedview4"
     showgrid="false"
     fit-margin-top="5"
     fit-margin-left="5"
     fit-margin-bottom="5"
     fit-margin-right="5"
     inkscape:zoom="1.9270571"
     inkscape:cx="181.5575"
     inkscape:cy="113.79048"
     inkscape:window-x="0"
     inkscape:window-y="24"
     inkscape:window-maximized="0"
     inkscape:current-layer="g10" /><g
     id="g10"
     inkscape:groupmode="layer"
     inkscape:label="chlamy_both_NW"
     transform="matrix(1.25,0,0,-1.25,-34.613823,329.71649)"><rect
       style="fill:#ffffff;fill-rule:evenodd;stroke:none;stroke-width:0.80000001px;stroke-linecap:butt;stroke-linejoin:miter;stroke-opacity:1"
       id="rect3450"
       width="191.48703"
       height="199.83063"
       x="52.245949"
       y="-237.96202"
       transform="scale(1,-1)"
       inkscape:export-xdpi="180.13547"
       inkscape:export-ydpi="180.13547" /><text
       id="text46"
       style="font-variant:normal;font-weight:normal;font-size:7.97850084px;font-family:'Zapf Dingbats';-inkscape-font-specification:ZapfDingbatsITC;writing-mode:lr-tb;fill:#0000ff;fill-opacity:1;fill-rule:nonzero;stroke:none"
       transform="scale(1,-1)"
       x="124.14825"
       y="-71.370636"
       inkscape:export-xdpi="180.13547"
       inkscape:export-ydpi="180.13547"><tspan
         id="tspan48"
         y="-71.370636"
         x="124.14825">●</tspan></text>
<text
       id="text50"
       style="font-variant:normal;font-weight:normal;font-size:7.97850084px;font-family:'Zapf Dingbats';-inkscape-font-specification:ZapfDingbatsITC;writing-mode:lr-tb;fill:#add8e6;fill-opacity:1;fill-rule:nonzero;stroke:none"
       transform="scale(1,-1)"
       x="59.588245"
       y="-150.51064"
       inkscape:export-xdpi="180.13547"
       inkscape:export-ydpi="180.13547"><tspan
         id="tspan52"
         y="-150.51064"
         x="59.588245">●</tspan></text>
<text
       id="text54"
       style="font-variant:normal;font-weight:normal;font-size:7.97850084px;font-family:'Zapf Dingbats';-inkscape-font-specification:ZapfDingbatsITC;writing-mode:lr-tb;fill:#ff0000;fill-opacity:1;fill-rule:nonzero;stroke:none"
       transform="scale(1,-1)"
       x="231.86826"
       y="-226.12064"
       inkscape:export-xdpi="180.13547"
       inkscape:export-ydpi="180.13547"><tspan
         id="tspan56"
         y="-226.12064"
         x="231.86826">●</tspan><tspan
         id="tspan58"
         y="-226.17064"
         x="230.18825">●</tspan></text>
<text
       id="text60"
       style="font-variant:normal;font-weight:normal;font-size:7.97850084px;font-family:'Zapf Dingbats';-inkscape-font-specification:ZapfDingbatsITC;writing-mode:lr-tb;fill:#006400;fill-opacity:1;fill-rule:nonzero;stroke:none"
       transform="scale(1,-1)"
       x="203.46826"
       y="-108.31063"
       inkscape:export-xdpi="180.13547"
       inkscape:export-ydpi="180.13547"><tspan
         id="tspan62"
         y="-108.31063"
         x="203.46826">●</tspan><tspan
         id="tspan64"
         y="-139.98064"
         x="209.28825">●</tspan><tspan
         id="tspan66"
         y="-97.63063"
         x="197.88826">●</tspan><tspan
         id="tspan68"
         y="-113.96064"
         x="208.34825">●</tspan></text>
<text
       id="text70"
       style="font-variant:normal;font-weight:normal;font-size:7.97850084px;font-family:'Zapf Dingbats';-inkscape-font-specification:ZapfDingbatsITC;writing-mode:lr-tb;fill:#0000ff;fill-opacity:1;fill-rule:nonzero;stroke:none"
       transform="scale(1,-1)"
       x="151.14825"
       y="-51.45063"
       inkscape:export-xdpi="180.13547"
       inkscape:export-ydpi="180.13547"><tspan
         id="tspan72"
         y="-51.45063"
         x="151.14825">●</tspan><tspan
         id="tspan74"
         y="-59.440628"
         x="131.03825">●</tspan><tspan
         id="tspan76"
         y="-44.440624"
         x="151.87825">●</tspan><tspan
         id="tspan78"
         y="-63.43063"
         x="126.82825">●</tspan></text>
<text
       id="text80"
       style="font-variant:normal;font-weight:normal;font-size:7.97850084px;font-family:'Zapf Dingbats';-inkscape-font-specification:ZapfDingbatsITC;writing-mode:lr-tb;fill:#add8e6;fill-opacity:1;fill-rule:nonzero;stroke:none"
       transform="scale(1,-1)"
       x="59.598251"
       y="-150.51064"
       inkscape:export-xdpi="180.13547"
       inkscape:export-ydpi="180.13547"><tspan
         id="tspan82"
         y="-150.51064"
         x="59.598251">●</tspan><tspan
         id="tspan84"
         y="-140.47063"
         x="69.238251">●</tspan><tspan
         id="tspan86"
         y="-152.44064"
         x="58.098255">●</tspan></text>
<text
       id="text88"
       style="font-variant:normal;font-weight:normal;font-size:7.97850084px;font-family:'Zapf Dingbats';-inkscape-font-specification:ZapfDingbatsITC;writing-mode:lr-tb;fill:#ff0000;fill-opacity:1;fill-rule:nonzero;stroke:none"
       transform="scale(1,-1)"
       x="57.958256"
       y="-152.42064"
       inkscape:export-xdpi="180.13547"
       inkscape:export-ydpi="180.13547"><tspan
         id="tspan90"
         y="-152.42064"
         x="57.958256">●</tspan></text>
<path
       inkscape:connector-curvature="0"
       id="path92"
       style="fill:none;stroke:#000000;stroke-width:1.07000005;stroke-linecap:round;stroke-linejoin:round;stroke-miterlimit:10;stroke-dasharray:none;stroke-opacity:1"
       d="m 52.309,238.022 191.418,0 0,-199.898 -191.418,0 0,199.898 z"
       inkscape:export-xdpi="180.13547"
       inkscape:export-ydpi="180.13547" /><path
       inkscape:connector-curvature="0"
       id="path94"
       style="fill:none;stroke:#000000;stroke-width:1.07000005;stroke-linecap:butt;stroke-linejoin:round;stroke-miterlimit:10;stroke-dasharray:none;stroke-opacity:1"
       d="m 52.309,37.37 0,199.898"
       inkscape:export-xdpi="180.13547"
       inkscape:export-ydpi="180.13547" /><path
       inkscape:connector-curvature="0"
       id="path106"
       style="fill:none;stroke:#000000;stroke-width:1.07000005;stroke-linecap:butt;stroke-linejoin:round;stroke-miterlimit:10;stroke-dasharray:none;stroke-opacity:1"
       d="m 52.309,38.124 191.418,0"
       inkscape:export-xdpi="180.13547"
       inkscape:export-ydpi="180.13547" /><text
       id="text122"
       style="font-variant:normal;font-weight:normal;font-size:11px;font-family:Helvetica;-inkscape-font-specification:Helvetica;writing-mode:lr-tb;fill:#000000;fill-opacity:1;fill-rule:nonzero;stroke:none"
       transform="scale(1,-1)"
       x="233.32843"
       y="-18.153187"
       inkscape:export-xdpi="180.13547"
       inkscape:export-ydpi="180.13547"><tspan
         id="tspan124"
         sodipodi:role="line"
         y="-18.153187"
         x="233.32843 240.65443 248.59644">PC1</tspan></text>
<text
       id="text126"
       style="font-variant:normal;font-weight:normal;font-size:11px;font-family:Helvetica;-inkscape-font-specification:Helvetica;writing-mode:lr-tb;fill:#000000;fill-opacity:1;fill-rule:nonzero;stroke:none"
       transform="matrix(0,1,1,0,0,0)"
       x="127.37319"
       y="39.908058"
       inkscape:export-xdpi="180.13547"
       inkscape:export-ydpi="180.13547"><tspan
         id="tspan128"
         sodipodi:role="line"
         y="39.908058"
         x="127.37319 134.69919 142.64119">PC2</tspan></text>
<text
       id="text130"
       style="font-variant:normal;font-weight:normal;font-size:20px;font-family:Helvetica;-inkscape-font-specification:Helvetica;writing-mode:lr-tb;fill:#000000;fill-opacity:1;fill-rule:nonzero;stroke:none"
       transform="scale(1,-1)"
       x="102.428"
       y="-244.83319"
       inkscape:export-xdpi="180.13547"
       inkscape:export-ydpi="180.13547"><tspan
         id="tspan132"
         sodipodi:role="line"
         y="-244.83319"
         x="102.428 115.74799 130.188 143.508 150.16801 161.28799 165.728 176.84799 182.388">SNPrelate</tspan></text>
<path
       inkscape:connector-curvature="0"
       id="path176"
       style="fill:#ffffff;fill-opacity:1;fill-rule:nonzero;stroke:none"
       d="m 246.203,238.253 186.422,0 0,-200.129 -186.422,0 0,200.129 z"
       inkscape:export-xdpi="180.13547"
       inkscape:export-ydpi="180.13547" /><text
       id="text178"
       style="font-variant:normal;font-weight:normal;font-size:6.88999987px;font-family:'Zapf Dingbats';-inkscape-font-specification:ZapfDingbatsITC;writing-mode:lr-tb;fill:#006400;fill-opacity:1;fill-rule:nonzero;stroke:none"
       transform="scale(1,-1)"
       x="396.13324"
       y="-130.30319"
       inkscape:export-xdpi="180.13547"
       inkscape:export-ydpi="180.13547"><tspan
         id="tspan180"
         y="-130.30319"
         x="396.13324">●</tspan></text>
<path
       inkscape:connector-curvature="0"
       id="path182"
       style="fill:none;stroke:#006400;stroke-width:0.70999998;stroke-linecap:round;stroke-linejoin:round;stroke-miterlimit:10;stroke-dasharray:none;stroke-opacity:1"
       d="m 401.414,132.725 c 0,-0.336 -0.062,-0.652 -0.187,-0.953 -0.125,-0.304 -0.309,-0.574 -0.547,-0.812 -0.242,-0.242 -0.512,-0.422 -0.813,-0.547 -0.305,-0.125 -0.625,-0.188 -0.969,-0.188 -0.336,0 -0.656,0.063 -0.968,0.188 -0.305,0.125 -0.571,0.305 -0.797,0.547 -0.242,0.238 -0.422,0.508 -0.547,0.812 -0.125,0.301 -0.188,0.617 -0.188,0.953 0,0.332 0.063,0.649 0.188,0.953 0.125,0.301 0.305,0.571 0.547,0.813 0.226,0.238 0.492,0.422 0.797,0.547 0.312,0.125 0.632,0.187 0.968,0.187 0.332,0 0.649,-0.062 0.954,-0.187 0.3,-0.125 0.578,-0.309 0.828,-0.547 0.238,-0.242 0.422,-0.512 0.547,-0.813 0.125,-0.304 0.187,-0.621 0.187,-0.953 z"
       inkscape:export-xdpi="180.13547"
       inkscape:export-ydpi="180.13547" /><text
       id="text184"
       style="font-variant:normal;font-weight:normal;font-size:6.88999987px;font-family:'Zapf Dingbats';-inkscape-font-specification:ZapfDingbatsITC;writing-mode:lr-tb;fill:#ff0000;fill-opacity:1;fill-rule:nonzero;stroke:none"
       transform="scale(1,-1)"
       x="421.22324"
       y="-226.7632"
       inkscape:export-xdpi="180.13547"
       inkscape:export-ydpi="180.13547"><tspan
         id="tspan186"
         y="-226.7632"
         x="421.22324">●</tspan></text>
<path
       inkscape:connector-curvature="0"
       id="path188"
       style="fill:none;stroke:#ff0000;stroke-width:0.70999998;stroke-linecap:round;stroke-linejoin:round;stroke-miterlimit:10;stroke-dasharray:none;stroke-opacity:1"
       d="m 426.504,229.186 c 0,-0.336 -0.063,-0.652 -0.188,-0.953 -0.125,-0.305 -0.308,-0.574 -0.546,-0.812 -0.243,-0.243 -0.512,-0.422 -0.813,-0.547 -0.305,-0.125 -0.625,-0.188 -0.969,-0.188 -0.336,0 -0.656,0.063 -0.968,0.188 -0.305,0.125 -0.571,0.304 -0.797,0.547 -0.243,0.238 -0.422,0.507 -0.547,0.812 -0.125,0.301 -0.188,0.617 -0.188,0.953 0,0.332 0.063,0.649 0.188,0.953 0.125,0.301 0.304,0.571 0.547,0.813 0.226,0.238 0.492,0.422 0.797,0.547 0.312,0.125 0.632,0.187 0.968,0.187 0.332,0 0.649,-0.062 0.953,-0.187 0.301,-0.125 0.579,-0.309 0.829,-0.547 0.238,-0.242 0.421,-0.512 0.546,-0.813 0.125,-0.304 0.188,-0.621 0.188,-0.953 z"
       inkscape:export-xdpi="180.13547"
       inkscape:export-ydpi="180.13547" /><text
       id="text190"
       style="font-variant:normal;font-weight:normal;font-size:6.88999987px;font-family:'Zapf Dingbats';-inkscape-font-specification:ZapfDingbatsITC;writing-mode:lr-tb;fill:#006400;fill-opacity:1;fill-rule:nonzero;stroke:none"
       transform="scale(1,-1)"
       x="398.72324"
       y="-150.00319"
       inkscape:export-xdpi="180.13547"
       inkscape:export-ydpi="180.13547"><tspan
         id="tspan192"
         y="-150.00319"
         x="398.72324">●</tspan></text>
<path
       inkscape:connector-curvature="0"
       id="path194"
       style="fill:none;stroke:#006400;stroke-width:0.70999998;stroke-linecap:round;stroke-linejoin:round;stroke-miterlimit:10;stroke-dasharray:none;stroke-opacity:1"
       d="m 404.004,152.425 c 0,-0.336 -0.063,-0.653 -0.188,-0.954 -0.125,-0.304 -0.308,-0.574 -0.546,-0.812 -0.243,-0.242 -0.512,-0.422 -0.813,-0.547 -0.305,-0.125 -0.625,-0.187 -0.969,-0.187 -0.336,0 -0.656,0.062 -0.968,0.187 -0.305,0.125 -0.571,0.305 -0.797,0.547 -0.243,0.238 -0.422,0.508 -0.547,0.812 -0.125,0.301 -0.188,0.618 -0.188,0.954 0,0.332 0.063,0.648 0.188,0.953 0.125,0.3 0.304,0.57 0.547,0.812 0.226,0.238 0.492,0.422 0.797,0.547 0.312,0.125 0.632,0.188 0.968,0.188 0.332,0 0.649,-0.063 0.953,-0.188 0.301,-0.125 0.579,-0.309 0.829,-0.547 0.238,-0.242 0.421,-0.512 0.546,-0.812 0.125,-0.305 0.188,-0.621 0.188,-0.953 z"
       inkscape:export-xdpi="180.13547"
       inkscape:export-ydpi="180.13547" /><text
       id="text196"
       style="font-variant:normal;font-weight:normal;font-size:6.88999987px;font-family:'Zapf Dingbats';-inkscape-font-specification:ZapfDingbatsITC;writing-mode:lr-tb;fill:#0000ff;fill-opacity:1;fill-rule:nonzero;stroke:none"
       transform="scale(1,-1)"
       x="321.34323"
       y="-64.04319"
       inkscape:export-xdpi="180.13547"
       inkscape:export-ydpi="180.13547"><tspan
         id="tspan198"
         y="-64.04319"
         x="321.34323">●</tspan></text>
<path
       inkscape:connector-curvature="0"
       id="path200"
       style="fill:none;stroke:#0000ff;stroke-width:0.70999998;stroke-linecap:round;stroke-linejoin:round;stroke-miterlimit:10;stroke-dasharray:none;stroke-opacity:1"
       d="m 326.625,66.464 c 0,-0.336 -0.063,-0.653 -0.187,-0.953 -0.126,-0.305 -0.309,-0.575 -0.547,-0.813 -0.243,-0.242 -0.512,-0.422 -0.813,-0.547 -0.305,-0.125 -0.625,-0.187 -0.969,-0.187 -0.336,0 -0.656,0.062 -0.968,0.187 -0.305,0.125 -0.571,0.305 -0.797,0.547 -0.242,0.238 -0.422,0.508 -0.547,0.813 -0.125,0.3 -0.188,0.617 -0.188,0.953 0,0.332 0.063,0.648 0.188,0.953 0.125,0.301 0.305,0.57 0.547,0.812 0.226,0.239 0.492,0.422 0.797,0.547 0.312,0.125 0.632,0.188 0.968,0.188 0.332,0 0.649,-0.063 0.953,-0.188 0.301,-0.125 0.579,-0.308 0.829,-0.547 0.238,-0.242 0.421,-0.511 0.547,-0.812 0.124,-0.305 0.187,-0.621 0.187,-0.953 z"
       inkscape:export-xdpi="180.13547"
       inkscape:export-ydpi="180.13547" /><text
       id="text202"
       style="font-variant:normal;font-weight:normal;font-size:6.88999987px;font-family:'Zapf Dingbats';-inkscape-font-specification:ZapfDingbatsITC;writing-mode:lr-tb;fill:#0000ff;fill-opacity:1;fill-rule:nonzero;stroke:none"
       transform="scale(1,-1)"
       x="348.74326"
       y="-49.45319"
       inkscape:export-xdpi="180.13547"
       inkscape:export-ydpi="180.13547"><tspan
         id="tspan204"
         y="-49.45319"
         x="348.74326">●</tspan></text>
<path
       inkscape:connector-curvature="0"
       id="path206"
       style="fill:none;stroke:#0000ff;stroke-width:0.70999998;stroke-linecap:round;stroke-linejoin:round;stroke-miterlimit:10;stroke-dasharray:none;stroke-opacity:1"
       d="m 354.023,51.874 c 0,-0.336 -0.062,-0.653 -0.187,-0.953 -0.125,-0.305 -0.309,-0.575 -0.547,-0.813 -0.242,-0.242 -0.512,-0.422 -0.812,-0.547 -0.305,-0.125 -0.625,-0.187 -0.969,-0.187 -0.336,0 -0.656,0.062 -0.969,0.187 -0.305,0.125 -0.57,0.305 -0.797,0.547 -0.242,0.238 -0.422,0.508 -0.547,0.813 -0.125,0.3 -0.187,0.617 -0.187,0.953 0,0.332 0.062,0.648 0.187,0.953 0.125,0.301 0.305,0.57 0.547,0.812 0.227,0.239 0.492,0.422 0.797,0.547 0.313,0.125 0.633,0.188 0.969,0.188 0.332,0 0.648,-0.063 0.953,-0.188 0.301,-0.125 0.578,-0.308 0.828,-0.547 0.238,-0.242 0.422,-0.511 0.547,-0.812 0.125,-0.305 0.187,-0.621 0.187,-0.953 z"
       inkscape:export-xdpi="180.13547"
       inkscape:export-ydpi="180.13547" /><text
       id="text208"
       style="font-variant:normal;font-weight:normal;font-size:6.88999987px;font-family:'Zapf Dingbats';-inkscape-font-specification:ZapfDingbatsITC;writing-mode:lr-tb;fill:#0000ff;fill-opacity:1;fill-rule:nonzero;stroke:none"
       transform="scale(1,-1)"
       x="326.89325"
       y="-56.873188"
       inkscape:export-xdpi="180.13547"
       inkscape:export-ydpi="180.13547"><tspan
         id="tspan210"
         y="-56.873188"
         x="326.89325">●</tspan></text>
<path
       inkscape:connector-curvature="0"
       id="path212"
       style="fill:none;stroke:#0000ff;stroke-width:0.70999998;stroke-linecap:round;stroke-linejoin:round;stroke-miterlimit:10;stroke-dasharray:none;stroke-opacity:1"
       d="m 332.176,59.296 c 0,-0.336 -0.063,-0.653 -0.188,-0.953 -0.125,-0.305 -0.308,-0.575 -0.547,-0.813 -0.242,-0.242 -0.511,-0.422 -0.812,-0.547 -0.305,-0.125 -0.625,-0.187 -0.969,-0.187 -0.336,0 -0.656,0.062 -0.969,0.187 -0.304,0.125 -0.57,0.305 -0.796,0.547 -0.243,0.238 -0.422,0.508 -0.547,0.813 -0.125,0.3 -0.188,0.617 -0.188,0.953 0,0.332 0.063,0.648 0.188,0.953 0.125,0.301 0.304,0.57 0.547,0.812 0.226,0.239 0.492,0.422 0.796,0.547 0.313,0.125 0.633,0.188 0.969,0.188 0.332,0 0.649,-0.063 0.953,-0.188 0.301,-0.125 0.578,-0.308 0.828,-0.547 0.239,-0.242 0.422,-0.511 0.547,-0.812 0.125,-0.305 0.188,-0.621 0.188,-0.953 z"
       inkscape:export-xdpi="180.13547"
       inkscape:export-ydpi="180.13547" /><text
       id="text214"
       style="font-variant:normal;font-weight:normal;font-size:6.88999987px;font-family:'Zapf Dingbats';-inkscape-font-specification:ZapfDingbatsITC;writing-mode:lr-tb;fill:#add8e6;fill-opacity:1;fill-rule:nonzero;stroke:none"
       transform="scale(1,-1)"
       x="261.50323"
       y="-147.52319"
       inkscape:export-xdpi="180.13547"
       inkscape:export-ydpi="180.13547"><tspan
         id="tspan216"
         y="-147.52319"
         x="261.50323">●</tspan></text>
<path
       inkscape:connector-curvature="0"
       id="path218"
       style="fill:none;stroke:#add8e6;stroke-width:0.70999998;stroke-linecap:round;stroke-linejoin:round;stroke-miterlimit:10;stroke-dasharray:none;stroke-opacity:1"
       d="m 266.785,149.944 c 0,-0.336 -0.062,-0.652 -0.187,-0.953 -0.125,-0.305 -0.309,-0.574 -0.547,-0.813 -0.242,-0.242 -0.512,-0.421 -0.813,-0.546 -0.304,-0.125 -0.625,-0.188 -0.968,-0.188 -0.336,0 -0.657,0.063 -0.969,0.188 -0.305,0.125 -0.571,0.304 -0.797,0.546 -0.242,0.239 -0.422,0.508 -0.547,0.813 -0.125,0.301 -0.187,0.617 -0.187,0.953 0,0.332 0.062,0.649 0.187,0.953 0.125,0.301 0.305,0.571 0.547,0.813 0.226,0.238 0.492,0.422 0.797,0.547 0.312,0.125 0.633,0.187 0.969,0.187 0.332,0 0.648,-0.062 0.953,-0.187 0.3,-0.125 0.578,-0.309 0.828,-0.547 0.238,-0.242 0.422,-0.512 0.547,-0.813 0.125,-0.304 0.187,-0.621 0.187,-0.953 z"
       inkscape:export-xdpi="180.13547"
       inkscape:export-ydpi="180.13547" /><text
       id="text220"
       style="font-variant:normal;font-weight:normal;font-size:6.88999987px;font-family:'Zapf Dingbats';-inkscape-font-specification:ZapfDingbatsITC;writing-mode:lr-tb;fill:#add8e6;fill-opacity:1;fill-rule:nonzero;stroke:none"
       transform="scale(1,-1)"
       x="255.87323"
       y="-155.72319"
       inkscape:export-xdpi="180.13547"
       inkscape:export-ydpi="180.13547"><tspan
         id="tspan222"
         y="-155.72319"
         x="255.87323">●</tspan></text>
<path
       inkscape:connector-curvature="0"
       id="path224"
       style="fill:none;stroke:#add8e6;stroke-width:0.70999998;stroke-linecap:round;stroke-linejoin:round;stroke-miterlimit:10;stroke-dasharray:none;stroke-opacity:1"
       d="m 261.156,158.143 c 0,-0.336 -0.062,-0.652 -0.187,-0.953 -0.125,-0.304 -0.309,-0.574 -0.547,-0.812 -0.242,-0.242 -0.512,-0.422 -0.813,-0.547 -0.304,-0.125 -0.625,-0.188 -0.968,-0.188 -0.336,0 -0.657,0.063 -0.969,0.188 -0.305,0.125 -0.57,0.305 -0.797,0.547 -0.242,0.238 -0.422,0.508 -0.547,0.812 -0.125,0.301 -0.187,0.617 -0.187,0.953 0,0.332 0.062,0.649 0.187,0.953 0.125,0.301 0.305,0.571 0.547,0.813 0.227,0.238 0.492,0.422 0.797,0.547 0.312,0.125 0.633,0.187 0.969,0.187 0.332,0 0.648,-0.062 0.953,-0.187 0.301,-0.125 0.578,-0.309 0.828,-0.547 0.238,-0.242 0.422,-0.512 0.547,-0.813 0.125,-0.304 0.187,-0.621 0.187,-0.953 z"
       inkscape:export-xdpi="180.13547"
       inkscape:export-ydpi="180.13547" /><text
       id="text226"
       style="font-variant:normal;font-weight:normal;font-size:6.88999987px;font-family:'Zapf Dingbats';-inkscape-font-specification:ZapfDingbatsITC;writing-mode:lr-tb;fill:#add8e6;fill-opacity:1;fill-rule:nonzero;stroke:none"
       transform="scale(1,-1)"
       x="257.62323"
       y="-163.2632"
       inkscape:export-xdpi="180.13547"
       inkscape:export-ydpi="180.13547"><tspan
         id="tspan228"
         y="-163.2632"
         x="257.62323">●</tspan></text>
<path
       inkscape:connector-curvature="0"
       id="path230"
       style="fill:none;stroke:#add8e6;stroke-width:0.70999998;stroke-linecap:round;stroke-linejoin:round;stroke-miterlimit:10;stroke-dasharray:none;stroke-opacity:1"
       d="m 262.906,165.686 c 0,-0.336 -0.062,-0.652 -0.187,-0.953 -0.125,-0.305 -0.309,-0.574 -0.547,-0.812 -0.242,-0.243 -0.512,-0.422 -0.813,-0.547 -0.304,-0.125 -0.625,-0.188 -0.968,-0.188 -0.336,0 -0.657,0.063 -0.969,0.188 -0.305,0.125 -0.57,0.304 -0.797,0.547 -0.242,0.238 -0.422,0.507 -0.547,0.812 -0.125,0.301 -0.187,0.617 -0.187,0.953 0,0.332 0.062,0.649 0.187,0.953 0.125,0.301 0.305,0.571 0.547,0.813 0.227,0.238 0.492,0.422 0.797,0.547 0.312,0.125 0.633,0.187 0.969,0.187 0.332,0 0.648,-0.062 0.953,-0.187 0.301,-0.125 0.578,-0.309 0.828,-0.547 0.238,-0.242 0.422,-0.512 0.547,-0.813 0.125,-0.304 0.187,-0.621 0.187,-0.953 z"
       inkscape:export-xdpi="180.13547"
       inkscape:export-ydpi="180.13547" /><text
       id="text232"
       style="font-variant:normal;font-weight:normal;font-size:6.88999987px;font-family:'Zapf Dingbats';-inkscape-font-specification:ZapfDingbatsITC;writing-mode:lr-tb;fill:#add8e6;fill-opacity:1;fill-rule:nonzero;stroke:none"
       transform="scale(1,-1)"
       x="253.84323"
       y="-157.06319"
       inkscape:export-xdpi="180.13547"
       inkscape:export-ydpi="180.13547"><tspan
         id="tspan234"
         y="-157.06319"
         x="253.84323">●</tspan></text>
<path
       inkscape:connector-curvature="0"
       id="path236"
       style="fill:none;stroke:#add8e6;stroke-width:0.70999998;stroke-linecap:round;stroke-linejoin:round;stroke-miterlimit:10;stroke-dasharray:none;stroke-opacity:1"
       d="m 259.125,159.483 c 0,-0.336 -0.063,-0.652 -0.187,-0.953 -0.126,-0.305 -0.309,-0.574 -0.547,-0.812 -0.243,-0.243 -0.512,-0.422 -0.813,-0.547 -0.305,-0.125 -0.625,-0.188 -0.969,-0.188 -0.336,0 -0.656,0.063 -0.968,0.188 -0.305,0.125 -0.571,0.304 -0.797,0.547 -0.242,0.238 -0.422,0.507 -0.547,0.812 -0.125,0.301 -0.188,0.617 -0.188,0.953 0,0.332 0.063,0.649 0.188,0.953 0.125,0.301 0.305,0.571 0.547,0.813 0.226,0.238 0.492,0.422 0.797,0.547 0.312,0.125 0.632,0.187 0.968,0.187 0.332,0 0.649,-0.062 0.953,-0.187 0.301,-0.125 0.579,-0.309 0.829,-0.547 0.238,-0.242 0.421,-0.512 0.547,-0.813 0.124,-0.304 0.187,-0.621 0.187,-0.953 z"
       inkscape:export-xdpi="180.13547"
       inkscape:export-ydpi="180.13547" /><text
       id="text238"
       style="font-variant:normal;font-weight:normal;font-size:6.88999987px;font-family:'Zapf Dingbats';-inkscape-font-specification:ZapfDingbatsITC;writing-mode:lr-tb;fill:#0000ff;fill-opacity:1;fill-rule:nonzero;stroke:none"
       transform="scale(1,-1)"
       x="320.36322"
       y="-75.343193"
       inkscape:export-xdpi="180.13547"
       inkscape:export-ydpi="180.13547"><tspan
         id="tspan240"
         y="-75.343193"
         x="320.36322">●</tspan></text>
<path
       inkscape:connector-curvature="0"
       id="path242"
       style="fill:none;stroke:#0000ff;stroke-width:0.70999998;stroke-linecap:round;stroke-linejoin:round;stroke-miterlimit:10;stroke-dasharray:none;stroke-opacity:1"
       d="m 325.46093,76.820923 c -0.12634,-0.31134 -0.30354,-0.580459 -0.53255,-0.812364 -0.23014,-0.234686 -0.50216,-0.415681 -0.81219,-0.54672 -0.31524,-0.13324 -0.63311,-0.198502 -0.95809,-0.20152 -0.32962,-0.0011 -0.64983,0.06081 -0.96858,0.190168 -0.31134,0.126345 -0.58417,0.30505 -0.82719,0.538573 -0.23561,0.230514 -0.41348,0.496951 -0.53282,0.806548 -0.13475,0.311532 -0.20001,0.629401 -0.20152,0.958093 -0.003,0.325913 0.0587,0.642035 0.18508,0.953376 0.12484,0.307634 0.30149,0.578055 0.532,0.813667 0.22864,0.230979 0.49695,0.413479 0.81219,0.546719 0.29984,0.135175 0.61458,0.206024 0.94419,0.207161 0.33704,-0.0019 0.65686,-0.06475 0.96821,-0.191094 0.30763,-0.124841 0.57712,-0.301116 0.81274,-0.53163 0.2319,-0.22901 0.41938,-0.503666 0.56154,-0.818206 0.12954,-0.313733 0.1985,-0.633107 0.20152,-0.958093 0.001,-0.329619 -0.0597,-0.647043 -0.18453,-0.954678 z"
       inkscape:export-xdpi="180.13547"
       inkscape:export-ydpi="180.13547" /><text
       id="text244"
       style="font-variant:normal;font-weight:normal;font-size:6.88999987px;font-family:'Zapf Dingbats';-inkscape-font-specification:ZapfDingbatsITC;writing-mode:lr-tb;fill:#add8e6;fill-opacity:1;fill-rule:nonzero;stroke:none"
       transform="scale(1,-1)"
       x="254.59323"
       y="-159.8532"
       inkscape:export-xdpi="180.13547"
       inkscape:export-ydpi="180.13547"><tspan
         id="tspan246"
         y="-159.8532"
         x="254.59323">●</tspan></text>
<path
       inkscape:connector-curvature="0"
       id="path248"
       style="fill:none;stroke:#add8e6;stroke-width:0.70999998;stroke-linecap:round;stroke-linejoin:round;stroke-miterlimit:10;stroke-dasharray:none;stroke-opacity:1"
       d="m 259.875,162.276 c 0,-0.336 -0.063,-0.652 -0.187,-0.953 -0.126,-0.305 -0.309,-0.574 -0.547,-0.812 -0.243,-0.243 -0.512,-0.422 -0.813,-0.547 -0.305,-0.125 -0.625,-0.188 -0.969,-0.188 -0.336,0 -0.656,0.063 -0.968,0.188 -0.305,0.125 -0.571,0.304 -0.797,0.547 -0.242,0.238 -0.422,0.507 -0.547,0.812 -0.125,0.301 -0.188,0.617 -0.188,0.953 0,0.332 0.063,0.649 0.188,0.953 0.125,0.301 0.305,0.571 0.547,0.813 0.226,0.238 0.492,0.422 0.797,0.547 0.312,0.125 0.632,0.187 0.968,0.187 0.332,0 0.649,-0.062 0.953,-0.187 0.301,-0.125 0.579,-0.309 0.829,-0.547 0.238,-0.242 0.421,-0.512 0.547,-0.813 0.124,-0.304 0.187,-0.621 0.187,-0.953 z"
       inkscape:export-xdpi="180.13547"
       inkscape:export-ydpi="180.13547" /><text
       id="text250"
       style="font-variant:normal;font-weight:normal;font-size:6.88999987px;font-family:'Zapf Dingbats';-inkscape-font-specification:ZapfDingbatsITC;writing-mode:lr-tb;fill:#ff0000;fill-opacity:1;fill-rule:nonzero;stroke:none"
       transform="scale(1,-1)"
       x="421.41324"
       y="-225.66319"
       inkscape:export-xdpi="180.13547"
       inkscape:export-ydpi="180.13547"><tspan
         id="tspan252"
         y="-225.66319"
         x="421.41324">●</tspan></text>
<path
       inkscape:connector-curvature="0"
       id="path254"
       style="fill:none;stroke:#ff0000;stroke-width:0.70999998;stroke-linecap:round;stroke-linejoin:round;stroke-miterlimit:10;stroke-dasharray:none;stroke-opacity:1"
       d="m 426.695,228.085 c 0,-0.336 -0.062,-0.653 -0.187,-0.953 -0.125,-0.305 -0.309,-0.575 -0.547,-0.813 -0.242,-0.242 -0.512,-0.422 -0.813,-0.547 -0.304,-0.125 -0.625,-0.187 -0.968,-0.187 -0.336,0 -0.657,0.062 -0.969,0.187 -0.305,0.125 -0.57,0.305 -0.797,0.547 -0.242,0.238 -0.422,0.508 -0.547,0.813 -0.125,0.3 -0.187,0.617 -0.187,0.953 0,0.332 0.062,0.648 0.187,0.953 0.125,0.301 0.305,0.57 0.547,0.812 0.227,0.239 0.492,0.422 0.797,0.547 0.312,0.125 0.633,0.188 0.969,0.188 0.332,0 0.648,-0.063 0.953,-0.188 0.301,-0.125 0.578,-0.308 0.828,-0.547 0.238,-0.242 0.422,-0.511 0.547,-0.812 0.125,-0.305 0.187,-0.621 0.187,-0.953 z"
       inkscape:export-xdpi="180.13547"
       inkscape:export-ydpi="180.13547" /><text
       id="text256"
       style="font-variant:normal;font-weight:normal;font-size:6.88999987px;font-family:'Zapf Dingbats';-inkscape-font-specification:ZapfDingbatsITC;writing-mode:lr-tb;fill:#006400;fill-opacity:1;fill-rule:nonzero;stroke:none"
       transform="scale(1,-1)"
       x="388.00323"
       y="-122.48319"
       inkscape:export-xdpi="180.13547"
       inkscape:export-ydpi="180.13547"><tspan
         id="tspan258"
         y="-122.48319"
         x="388.00323">●</tspan></text>
<path
       inkscape:connector-curvature="0"
       id="path260"
       style="fill:none;stroke:#006400;stroke-width:0.70999998;stroke-linecap:round;stroke-linejoin:round;stroke-miterlimit:10;stroke-dasharray:none;stroke-opacity:1"
       d="m 393.285,124.905 c 0,-0.336 -0.062,-0.652 -0.187,-0.953 -0.125,-0.305 -0.309,-0.574 -0.547,-0.813 -0.242,-0.242 -0.512,-0.421 -0.813,-0.546 -0.304,-0.125 -0.625,-0.188 -0.968,-0.188 -0.336,0 -0.657,0.063 -0.969,0.188 -0.305,0.125 -0.571,0.304 -0.797,0.546 -0.242,0.239 -0.422,0.508 -0.547,0.813 -0.125,0.301 -0.187,0.617 -0.187,0.953 0,0.332 0.062,0.648 0.187,0.953 0.125,0.301 0.305,0.57 0.547,0.813 0.226,0.238 0.492,0.422 0.797,0.547 0.312,0.125 0.633,0.187 0.969,0.187 0.332,0 0.648,-0.062 0.953,-0.187 0.3,-0.125 0.578,-0.309 0.828,-0.547 0.238,-0.243 0.422,-0.512 0.547,-0.813 0.125,-0.305 0.187,-0.621 0.187,-0.953 z"
       inkscape:export-xdpi="180.13547"
       inkscape:export-ydpi="180.13547" /><text
       id="text262"
       style="font-variant:normal;font-weight:normal;font-size:6.88999987px;font-family:'Zapf Dingbats';-inkscape-font-specification:ZapfDingbatsITC;writing-mode:lr-tb;fill:#006400;fill-opacity:1;fill-rule:nonzero;stroke:none"
       transform="scale(1,-1)"
       x="398.54321"
       y="-129.87318"
       inkscape:export-xdpi="180.13547"
       inkscape:export-ydpi="180.13547"><tspan
         id="tspan264"
         y="-129.87318"
         x="398.54321">●</tspan></text>
<path
       inkscape:connector-curvature="0"
       id="path266"
       style="fill:none;stroke:#006400;stroke-width:0.70999998;stroke-linecap:round;stroke-linejoin:round;stroke-miterlimit:10;stroke-dasharray:none;stroke-opacity:1"
       d="m 403.824,132.296 c 0,-0.336 -0.062,-0.653 -0.187,-0.953 -0.125,-0.305 -0.309,-0.575 -0.547,-0.813 -0.242,-0.242 -0.512,-0.422 -0.813,-0.547 -0.304,-0.125 -0.625,-0.187 -0.968,-0.187 -0.336,0 -0.657,0.062 -0.969,0.187 -0.305,0.125 -0.57,0.305 -0.797,0.547 -0.242,0.238 -0.422,0.508 -0.547,0.813 -0.125,0.3 -0.187,0.617 -0.187,0.953 0,0.332 0.062,0.648 0.187,0.953 0.125,0.301 0.305,0.57 0.547,0.812 0.227,0.239 0.492,0.422 0.797,0.547 0.312,0.125 0.633,0.188 0.969,0.188 0.332,0 0.648,-0.063 0.953,-0.188 0.3,-0.125 0.578,-0.308 0.828,-0.547 0.238,-0.242 0.422,-0.511 0.547,-0.812 0.125,-0.305 0.187,-0.621 0.187,-0.953 z"
       inkscape:export-xdpi="180.13547"
       inkscape:export-ydpi="180.13547" /><text
       id="text268"
       style="font-variant:normal;font-weight:normal;font-size:6.88999987px;font-family:'Zapf Dingbats';-inkscape-font-specification:ZapfDingbatsITC;writing-mode:lr-tb;fill:#0000ff;fill-opacity:1;fill-rule:nonzero;stroke:none"
       transform="scale(1,-1)"
       x="346.83322"
       y="-44.823189"
       inkscape:export-xdpi="180.13547"
       inkscape:export-ydpi="180.13547"><tspan
         id="tspan270"
         y="-44.823189"
         x="346.83322">●</tspan></text>
<path
       inkscape:connector-curvature="0"
       id="path272"
       style="fill:none;stroke:#0000ff;stroke-width:0.70999998;stroke-linecap:round;stroke-linejoin:round;stroke-miterlimit:10;stroke-dasharray:none;stroke-opacity:1"
       d="m 352.113,47.245 c 0,-0.336 -0.062,-0.652 -0.187,-0.953 -0.125,-0.305 -0.309,-0.574 -0.547,-0.813 -0.242,-0.242 -0.512,-0.422 -0.813,-0.547 -0.304,-0.125 -0.625,-0.187 -0.968,-0.187 -0.336,0 -0.657,0.062 -0.969,0.187 -0.305,0.125 -0.57,0.305 -0.797,0.547 -0.242,0.239 -0.422,0.508 -0.547,0.813 -0.125,0.301 -0.187,0.617 -0.187,0.953 0,0.332 0.062,0.648 0.187,0.953 0.125,0.301 0.305,0.57 0.547,0.813 0.227,0.238 0.492,0.421 0.797,0.546 0.312,0.125 0.633,0.188 0.969,0.188 0.332,0 0.648,-0.063 0.953,-0.188 0.301,-0.125 0.578,-0.308 0.828,-0.546 0.238,-0.243 0.422,-0.512 0.547,-0.813 0.125,-0.305 0.187,-0.621 0.187,-0.953 z"
       inkscape:export-xdpi="180.13547"
       inkscape:export-ydpi="180.13547" /><text
       id="text274"
       style="font-variant:normal;font-weight:normal;font-size:6.88999987px;font-family:'Zapf Dingbats';-inkscape-font-specification:ZapfDingbatsITC;writing-mode:lr-tb;fill:#add8e6;fill-opacity:1;fill-rule:nonzero;stroke:none"
       transform="scale(1,-1)"
       x="255.52322"
       y="-159.52319"
       inkscape:export-xdpi="180.13547"
       inkscape:export-ydpi="180.13547"><tspan
         id="tspan276"
         y="-159.52319"
         x="255.52322">●</tspan></text>
<path
       inkscape:connector-curvature="0"
       id="path278"
       style="fill:none;stroke:#add8e6;stroke-width:0.70999998;stroke-linecap:round;stroke-linejoin:round;stroke-miterlimit:10;stroke-dasharray:none;stroke-opacity:1"
       d="m 260.805,161.944 c 0,-0.336 -0.063,-0.652 -0.188,-0.953 -0.125,-0.305 -0.308,-0.574 -0.547,-0.813 -0.242,-0.242 -0.511,-0.421 -0.812,-0.546 -0.305,-0.125 -0.625,-0.188 -0.969,-0.188 -0.336,0 -0.656,0.063 -0.969,0.188 -0.304,0.125 -0.57,0.304 -0.797,0.546 -0.242,0.239 -0.421,0.508 -0.546,0.813 -0.125,0.301 -0.188,0.617 -0.188,0.953 0,0.332 0.063,0.649 0.188,0.953 0.125,0.301 0.304,0.571 0.546,0.813 0.227,0.238 0.493,0.422 0.797,0.547 0.313,0.125 0.633,0.187 0.969,0.187 0.332,0 0.649,-0.062 0.953,-0.187 0.301,-0.125 0.578,-0.309 0.828,-0.547 0.239,-0.242 0.422,-0.512 0.547,-0.813 0.125,-0.304 0.188,-0.621 0.188,-0.953 z"
       inkscape:export-xdpi="180.13547"
       inkscape:export-ydpi="180.13547" /><text
       id="text280"
       style="font-variant:normal;font-weight:normal;font-size:6.88999987px;font-family:'Zapf Dingbats';-inkscape-font-specification:ZapfDingbatsITC;writing-mode:lr-tb;fill:#add8e6;fill-opacity:1;fill-rule:nonzero;stroke:none"
       transform="scale(1,-1)"
       x="261.86322"
       y="-148.05319"
       inkscape:export-xdpi="180.13547"
       inkscape:export-ydpi="180.13547"><tspan
         id="tspan282"
         y="-148.05319"
         x="261.86322">●</tspan></text>
<path
       inkscape:connector-curvature="0"
       id="path284"
       style="fill:none;stroke:#add8e6;stroke-width:0.70999998;stroke-linecap:round;stroke-linejoin:round;stroke-miterlimit:10;stroke-dasharray:none;stroke-opacity:1"
       d="m 267.145,150.475 c 0,-0.336 -0.063,-0.652 -0.188,-0.953 -0.125,-0.304 -0.309,-0.574 -0.547,-0.812 -0.242,-0.242 -0.512,-0.422 -0.812,-0.547 -0.305,-0.125 -0.625,-0.188 -0.969,-0.188 -0.336,0 -0.656,0.063 -0.969,0.188 -0.305,0.125 -0.57,0.305 -0.797,0.547 -0.242,0.238 -0.422,0.508 -0.547,0.812 -0.125,0.301 -0.187,0.617 -0.187,0.953 0,0.332 0.062,0.649 0.187,0.953 0.125,0.301 0.305,0.571 0.547,0.813 0.227,0.238 0.492,0.422 0.797,0.547 0.313,0.125 0.633,0.187 0.969,0.187 0.332,0 0.648,-0.062 0.953,-0.187 0.301,-0.125 0.578,-0.309 0.828,-0.547 0.238,-0.242 0.422,-0.512 0.547,-0.813 0.125,-0.304 0.188,-0.621 0.188,-0.953 z"
       inkscape:export-xdpi="180.13547"
       inkscape:export-ydpi="180.13547" /><text
       id="text286"
       style="font-variant:normal;font-weight:normal;font-size:6.88999987px;font-family:'Zapf Dingbats';-inkscape-font-specification:ZapfDingbatsITC;writing-mode:lr-tb;fill:#add8e6;fill-opacity:1;fill-rule:nonzero;stroke:none"
       transform="scale(1,-1)"
       x="253.40323"
       y="-158.2132"
       inkscape:export-xdpi="180.13547"
       inkscape:export-ydpi="180.13547"><tspan
         id="tspan288"
         y="-158.2132"
         x="253.40323">●</tspan></text>
<path
       inkscape:connector-curvature="0"
       id="path290"
       style="fill:none;stroke:#add8e6;stroke-width:0.70999998;stroke-linecap:round;stroke-linejoin:round;stroke-miterlimit:10;stroke-dasharray:none;stroke-opacity:1"
       d="m 258.684,160.636 c 0,-0.336 -0.063,-0.653 -0.188,-0.954 -0.125,-0.304 -0.308,-0.574 -0.547,-0.812 -0.242,-0.242 -0.511,-0.422 -0.812,-0.547 -0.305,-0.125 -0.625,-0.187 -0.969,-0.187 -0.336,0 -0.656,0.062 -0.969,0.187 -0.304,0.125 -0.57,0.305 -0.797,0.547 -0.242,0.238 -0.422,0.508 -0.547,0.812 -0.125,0.301 -0.187,0.618 -0.187,0.954 0,0.332 0.062,0.648 0.187,0.953 0.125,0.3 0.305,0.57 0.547,0.812 0.227,0.238 0.493,0.422 0.797,0.547 0.313,0.125 0.633,0.188 0.969,0.188 0.332,0 0.648,-0.063 0.953,-0.188 0.301,-0.125 0.578,-0.309 0.828,-0.547 0.239,-0.242 0.422,-0.512 0.547,-0.812 0.125,-0.305 0.188,-0.621 0.188,-0.953 z"
       inkscape:export-xdpi="180.13547"
       inkscape:export-ydpi="180.13547" /><text
       id="text292"
       style="font-variant:normal;font-weight:normal;font-size:6.88999987px;font-family:'Zapf Dingbats';-inkscape-font-specification:ZapfDingbatsITC;writing-mode:lr-tb;fill:#ff0000;fill-opacity:1;fill-rule:nonzero;stroke:none"
       transform="scale(1,-1)"
       x="251.94324"
       y="-160.28317"
       inkscape:export-xdpi="180.13547"
       inkscape:export-ydpi="180.13547"><tspan
         id="tspan294"
         y="-160.28317"
         x="251.94324">●</tspan></text>
<path
       inkscape:connector-curvature="0"
       id="path296"
       style="fill:none;stroke:#ff0000;stroke-width:0.70999998;stroke-linecap:round;stroke-linejoin:round;stroke-miterlimit:10;stroke-dasharray:none;stroke-opacity:1"
       d="m 257.227,162.706 c 0,-0.336 -0.063,-0.653 -0.188,-0.953 -0.125,-0.305 -0.309,-0.575 -0.547,-0.813 -0.242,-0.242 -0.512,-0.422 -0.812,-0.547 -0.305,-0.125 -0.625,-0.187 -0.969,-0.187 -0.336,0 -0.656,0.062 -0.969,0.187 -0.304,0.125 -0.57,0.305 -0.797,0.547 -0.242,0.238 -0.422,0.508 -0.547,0.813 -0.125,0.3 -0.187,0.617 -0.187,0.953 0,0.332 0.062,0.648 0.187,0.953 0.125,0.301 0.305,0.57 0.547,0.812 0.227,0.239 0.493,0.422 0.797,0.547 0.313,0.125 0.633,0.188 0.969,0.188 0.332,0 0.648,-0.063 0.953,-0.188 0.301,-0.125 0.578,-0.308 0.828,-0.547 0.238,-0.242 0.422,-0.511 0.547,-0.812 0.125,-0.305 0.188,-0.621 0.188,-0.953 z"
       inkscape:export-xdpi="180.13547"
       inkscape:export-ydpi="180.13547" /><path
       inkscape:connector-curvature="0"
       id="path298"
       style="fill:none;stroke:#000000;stroke-width:1.07000005;stroke-linecap:round;stroke-linejoin:round;stroke-miterlimit:10;stroke-dasharray:none;stroke-opacity:1"
       d="m 246.203,238.253 186.422,0 0,-200.129 -186.422,0 0,200.129 z"
       inkscape:export-xdpi="180.13547"
       inkscape:export-ydpi="180.13547" /><path
       inkscape:connector-curvature="0"
       id="path300"
       style="fill:none;stroke:#000000;stroke-width:1.07000005;stroke-linecap:butt;stroke-linejoin:round;stroke-miterlimit:10;stroke-dasharray:none;stroke-opacity:1"
       d="m 246.203,38.124 0,200.129"
       inkscape:export-xdpi="180.13547"
       inkscape:export-ydpi="180.13547" /><text
       id="text346"
       style="font-variant:normal;font-weight:normal;font-size:20px;font-family:Helvetica;-inkscape-font-specification:Helvetica;writing-mode:lr-tb;fill:#000000;fill-opacity:1;fill-rule:nonzero;stroke:none"
       transform="scale(1,-1)"
       x="315.46399"
       y="-244.83319"
       inkscape:export-xdpi="180.13547"
       inkscape:export-ydpi="180.13547"><tspan
         id="tspan348"
         sodipodi:role="line"
         y="-244.83319"
         x="315.46399 325.46399 344.32397 349.86398">kWIP</tspan></text>
<text
       xml:space="preserve"
       style="font-style:normal;font-weight:normal;font-size:32px;line-height:125%;font-family:sans-serif;letter-spacing:0px;word-spacing:0px;fill:#000000;fill-opacity:1;stroke:none;stroke-width:1px;stroke-linecap:butt;stroke-linejoin:miter;stroke-opacity:1"
       x="-84.396957"
       y="-251.00058"
       id="text3452"
       sodipodi:linespacing="125%"
       transform="scale(1,-1)"><tspan
         sodipodi:role="line"
         id="tspan3454"
         x="-84.396957"
         y="-251.00058"></tspan></text>
</g></svg>